<svg width="90" height="23" viewBox="0 0 90 23" fill="none" xmlns="http://www.w3.org/2000/svg">
<g clip-path="url(#clip0_190_336)">
<path d="M40.8661 8.01794C40.5451 8.02685 40.2329 8.03575 40.2151 8.06245C40.1616 8.11585 40.1527 15.7528 40.2151 15.8419C40.2419 15.8953 41.1604 15.9131 41.5617 15.8686C41.6331 15.8597 41.6152 8.03574 41.535 8.03574C41.4458 8.02684 41.3209 8.02684 41.1872 8.02684C41.0891 8.01794 40.982 8.01794 40.8661 8.01794ZM34.8822 8.65881L32.3227 8.66771C30.9137 8.66771 29.7187 8.67661 29.6741 8.67661C29.5492 8.68551 29.5581 9.39759 29.683 9.43319C29.7365 9.45099 30.12 9.44209 30.5213 9.40649C30.9315 9.37088 31.3239 9.36198 31.3952 9.38869C31.5023 9.43319 31.5201 9.99395 31.5201 12.6019C31.5201 14.3465 31.529 15.7974 31.5558 15.833C31.5825 15.8686 31.9214 15.8953 32.3227 15.8864L33.0451 15.8775L33.0094 13.2428C32.9737 10.4924 33.0272 9.45099 33.2145 9.37979C33.2769 9.35308 33.6426 9.36198 34.0439 9.39759C34.4363 9.43319 34.8019 9.43319 34.8554 9.39759C34.9089 9.36198 34.9357 9.18397 34.9178 8.98815L34.8822 8.65881ZM36.8798 10.8128C36.7014 10.8128 36.5052 10.8395 36.318 10.884C35.6402 11.0443 35.1765 11.4181 34.8643 12.059C34.6414 12.5218 34.6057 12.6998 34.6057 13.3763C34.6057 14.0617 34.6414 14.2308 34.8822 14.7114C35.2032 15.3523 35.6669 15.7529 36.2823 15.922C37.2097 16.1801 38.4048 15.9131 38.699 15.3879C38.8863 15.0408 38.7704 14.9785 38.3156 15.1832C37.7894 15.4235 37.1295 15.4146 36.7995 15.1654C36.4428 14.9073 36.1218 14.2486 36.1218 13.7768V13.3852L37.5754 13.3585L39.029 13.3318L39.0558 12.9936C39.1628 11.7207 38.164 10.7772 36.8798 10.8128ZM44.9862 10.8395C43.9874 10.8306 42.8816 11.3024 43.0153 11.8097C43.0778 12.0323 43.2115 12.0501 43.4612 11.872C43.7912 11.6406 44.353 11.5338 44.7097 11.6317C45.1111 11.7385 45.3251 11.9611 45.3964 12.3438C45.4767 12.7532 45.227 12.958 44.4065 13.1538C44.032 13.2428 43.5772 13.3941 43.3899 13.4831C42.6943 13.8302 42.4357 14.4711 42.7032 15.1743C42.8816 15.6371 42.9886 15.7529 43.4702 15.922C43.8715 16.0733 44.5492 16.0199 44.8257 15.8152C44.9327 15.7439 45.1021 15.6104 45.2092 15.5392C45.3964 15.4057 45.4232 15.4146 45.6818 15.6727C46.0207 16.011 46.4666 16.1 46.9571 15.9309C47.3762 15.7796 47.4208 15.6371 47.0998 15.4769C46.7787 15.3167 46.7163 14.9696 46.7787 13.6166C46.8679 11.783 46.6271 11.2223 45.6372 10.9374C45.4499 10.8662 45.2181 10.8395 44.9862 10.8395ZM36.9511 11.2579C37.3524 11.2579 37.7537 12.0056 37.6824 12.6197C37.6556 12.8601 37.6378 12.8689 36.9333 12.8957C36.1039 12.9224 36.0682 12.8868 36.1753 12.2103C36.2377 11.7296 36.6301 11.2579 36.9511 11.2579ZM45.2805 13.3496C45.4589 13.3585 45.4678 13.5632 45.4232 14.2041C45.3964 14.7203 45.3429 14.8895 45.1646 15.0764C44.8792 15.379 44.4065 15.3968 44.2014 15.112C44.1212 14.9963 44.0587 14.7292 44.0587 14.5156C44.0587 14.0172 44.3798 13.6255 44.9416 13.4386C45.0665 13.3941 45.1646 13.3674 45.2448 13.3585C45.2537 13.3496 45.2627 13.3496 45.2805 13.3496Z" fill="#72654F"/>
<path d="M53.2353 8.6588H52.6735L50.9167 8.66771L50.9077 12.2459C50.8988 14.213 50.9077 15.8419 50.9256 15.8686C50.9434 15.8953 51.6479 15.9131 52.5041 15.9131C54.3322 15.9131 54.7068 15.8241 55.2597 15.2722C55.6432 14.8984 55.8572 14.3554 55.8483 13.7857C55.8394 13.1449 55.3132 12.4773 54.5641 12.1658L54.2431 12.0323L54.7246 11.7385C55.2954 11.3825 55.5718 10.973 55.6343 10.3767C55.7056 9.75362 55.4024 9.18396 54.8406 8.87243C54.5373 8.70331 54.4303 8.6588 53.6723 8.6499C53.5385 8.6588 53.3958 8.6588 53.2353 8.6588ZM64.5522 9.09495C64.463 9.09495 64.1777 9.19286 63.8655 9.34418L63.2234 9.65571V10.9908L62.8756 11.0176C62.5724 11.0443 62.5278 11.0799 62.5278 11.2757C62.5278 11.4715 62.5813 11.516 62.8489 11.5516L63.1699 11.5961V13.3496C63.1699 15.3256 63.2413 15.5837 63.8655 15.9131C64.249 16.1089 65.0338 16.0733 65.3994 15.8419C65.7026 15.646 65.6313 15.468 65.2656 15.5036C64.8822 15.5392 64.6325 15.2722 64.5522 14.7381C64.4719 14.2219 64.5433 11.6851 64.6325 11.5872C64.6681 11.5516 64.8376 11.5338 65.007 11.5427C65.1943 11.5516 65.3637 11.5071 65.4351 11.427C65.6134 11.2045 65.3905 11.0086 64.9535 11.0086H64.5879L64.6236 10.0919C64.6414 9.5934 64.6236 9.14836 64.5879 9.11275C64.579 9.09495 64.57 9.09495 64.5522 9.09495ZM52.9054 9.18396C53.0302 9.18396 53.1818 9.20176 53.3334 9.23736C53.8596 9.37978 54.0914 9.74472 54.0914 10.439C54.0914 11.0354 53.8685 11.4626 53.4583 11.6762C53.1194 11.8542 52.5397 11.8631 52.4773 11.7029C52.4505 11.6406 52.4416 11.071 52.4595 10.439C52.4862 9.30857 52.4862 9.29077 52.7181 9.21066C52.7627 9.19286 52.834 9.18396 52.9054 9.18396ZM59.353 10.8306C58.3542 10.8484 57.4357 11.3914 57.0522 12.2815C56.3566 13.9014 57.0611 15.6015 58.5861 15.9576C59.8435 16.2513 61.0564 15.7528 61.5825 14.7292C61.8233 14.2575 61.9125 13.0203 61.743 12.415C61.5914 11.8898 61.0207 11.2401 60.5391 11.0443C60.1557 10.8929 59.7454 10.8217 59.353 10.8306ZM74.6741 10.8306C74.2817 10.8306 73.8715 10.9819 73.4702 11.2757C73.0867 11.5516 73.051 11.5427 72.9886 11.1422C72.9618 10.9908 72.8816 10.9641 72.3376 10.9641C71.9987 10.9641 71.6955 10.9819 71.6687 11.0086C71.6063 11.071 71.5974 15.7528 71.6598 15.8508C71.6866 15.9042 72.4803 15.9131 73.0153 15.8775C73.0421 15.8775 73.0599 15.0853 73.0599 14.1329C73.0599 12.5129 73.0778 12.3705 73.2561 12.1302C73.6574 11.5872 74.2549 11.5516 74.6295 12.0412C74.8079 12.2815 74.8168 12.4239 74.8168 14.0884V15.8775H76.2526V13.9638C76.2526 11.8008 76.1723 11.4359 75.5926 11.0888C75.2805 10.9196 74.9862 10.8306 74.6741 10.8306ZM68.4048 10.8484C67.406 10.8395 66.3001 11.3113 66.4339 11.8186C66.4963 12.0412 66.6301 12.059 66.8798 11.8809C67.2098 11.6495 67.7716 11.5427 68.1283 11.6406C68.5296 11.7474 68.7436 11.97 68.815 12.3527C68.8953 12.7621 68.6455 12.9669 67.8251 13.1627C67.4505 13.2517 66.9957 13.403 66.8085 13.492C66.1129 13.8391 65.8542 14.48 66.1218 15.1832C66.3001 15.646 66.4071 15.7617 66.8887 15.9309C67.29 16.0822 67.9678 16.0288 68.2442 15.8241C68.3513 15.7528 68.5207 15.6193 68.6277 15.5481C68.815 15.4146 68.8417 15.4235 69.1004 15.6816C69.4392 16.0199 69.8851 16.1089 70.3756 15.9398C70.7948 15.7884 70.8394 15.646 70.5183 15.4858C70.1973 15.3256 70.1348 14.9785 70.1973 13.6255C70.2865 11.7919 70.0457 11.2312 69.0558 10.9463C68.8596 10.8751 68.6277 10.8573 68.4048 10.8484ZM87.6765 10.8484C86.6777 10.8395 85.5718 11.3113 85.7056 11.8186C85.768 12.0412 85.9018 12.059 86.1515 11.8809C86.4815 11.6495 87.0433 11.5427 87.4 11.6406C87.8013 11.7474 88.0153 11.97 88.0867 12.3527C88.167 12.7621 87.9172 12.9669 87.0968 13.1627C86.7222 13.2517 86.2674 13.403 86.0801 13.492C85.3845 13.8391 85.1259 14.48 85.3935 15.1832C85.5718 15.646 85.6788 15.7617 86.1604 15.9309C86.5617 16.0822 87.2395 16.0288 87.5159 15.8241C87.623 15.7528 87.7924 15.6193 87.8994 15.5481C88.0867 15.4146 88.1134 15.4235 88.3721 15.6816C88.7109 16.0199 89.1568 16.1089 89.6473 15.9398C90.0665 15.7884 90.1111 15.646 89.79 15.4858C89.469 15.3256 89.4065 14.9785 89.469 13.6255C89.5582 11.7919 89.3174 11.2312 88.3275 10.9463C88.1313 10.8751 87.9083 10.8573 87.6765 10.8484ZM82.7181 10.8662C82.2098 10.8662 82.0492 10.9196 81.6301 11.1333C80.3191 11.8008 79.8465 13.3852 80.551 14.7648C80.8453 15.3434 81.3447 15.7439 82.0225 15.9309C82.9589 16.1979 84.145 15.922 84.3679 15.3968C84.4303 15.2544 84.4571 15.112 84.4303 15.0853C84.4036 15.0586 84.1895 15.1298 83.9488 15.2366C83.3691 15.4947 82.8162 15.4146 82.3792 15.0319C81.9868 14.6847 81.8352 14.2575 81.8352 13.4297C81.8263 12.1391 82.29 11.3558 83.0837 11.3558C83.3869 11.3558 83.5207 11.4181 83.7704 11.6673C83.9398 11.8364 84.0825 12.0501 84.0825 12.1302C84.0825 12.2103 84.136 12.2726 84.2074 12.2726C84.3857 12.2726 84.6889 11.4537 84.573 11.2757C84.4214 11.0265 83.7882 10.8662 82.9678 10.8573C82.8697 10.8662 82.7894 10.8662 82.7181 10.8662ZM78.1164 10.973C77.831 10.9819 77.5813 10.9908 77.5635 11.0086C77.5011 11.071 77.4922 15.7528 77.5546 15.8508C77.5813 15.9042 78.384 15.9131 78.9101 15.8775C78.9369 15.8775 78.9547 14.7737 78.9547 13.4386C78.9547 12.0946 78.9369 10.9997 78.9101 10.9997C78.7318 10.973 78.4018 10.973 78.1164 10.973ZM59.353 11.2757C59.5403 11.2757 59.7276 11.3558 59.906 11.5338C60.2448 11.872 60.3697 12.3349 60.3697 13.2695C60.3697 14.3554 60.227 14.934 59.8614 15.2989C59.5136 15.646 59.2104 15.6816 58.8715 15.4235C58.488 15.1209 58.3364 14.5868 58.3364 13.581C58.3364 13.0826 58.3631 12.5663 58.3988 12.415C58.5683 11.694 58.9428 11.2846 59.353 11.2757ZM52.7805 12.3972C53.1105 12.3794 53.592 12.5485 53.7972 12.7621C54.3947 13.3941 54.2966 14.6669 53.6277 15.1565C53.3869 15.3345 52.7627 15.4502 52.5486 15.3523C52.4595 15.3167 52.4327 14.934 52.4327 13.8836C52.4327 12.4684 52.4327 12.4684 52.6467 12.415C52.6913 12.4061 52.7359 12.3972 52.7805 12.3972ZM68.6901 13.3585C68.8685 13.3674 68.8774 13.5721 68.8328 14.213C68.8061 14.7292 68.7526 14.8984 68.5742 15.0853C68.2888 15.3879 67.8162 15.4057 67.6111 15.1209C67.5308 15.0052 67.4684 14.7381 67.4684 14.5245C67.4684 14.0261 67.7894 13.6344 68.3513 13.4475C68.4761 13.403 68.5742 13.3763 68.6545 13.3674C68.6634 13.3674 68.6723 13.3585 68.6901 13.3585ZM87.9618 13.3585C88.1402 13.3674 88.1491 13.5721 88.1045 14.213C88.0778 14.7292 88.0243 14.8984 87.8459 15.0853C87.5605 15.3879 87.0879 15.4057 86.8828 15.1209C86.8025 15.0052 86.7401 14.7381 86.7401 14.5245C86.7401 14.0261 87.0611 13.6344 87.623 13.4475C87.7478 13.403 87.8459 13.3763 87.9262 13.3674C87.944 13.3674 87.9529 13.3585 87.9618 13.3585Z" fill="#72654F"/>
<path d="M79.0171 9.51331C79.0171 9.94946 78.6515 10.3055 78.2056 10.3055C77.7597 10.3055 77.394 9.94946 77.394 9.51331C77.394 9.07717 77.7597 8.72113 78.2056 8.72113C78.6604 8.72113 79.0171 9.07717 79.0171 9.51331Z" fill="#72654F"/>
<path d="M22.1562 -0.00177002H22.1027C21.5676 0.0338337 20.542 0.612395 19.0884 1.69831C18.1431 2.40148 17.3494 3.08685 16.7697 3.68321C16.2614 4.20837 16.0206 4.68902 15.3875 6.4425C14.8524 7.92006 14.5313 8.60543 14.246 8.89026C13.809 9.3264 13.6128 9.14838 12.8904 7.72424C12.3197 6.59382 11.9808 6.06866 11.5349 5.59691C11.1158 5.15187 10.8482 4.96495 10.1437 4.61781C9.12705 4.11046 7.69126 3.69212 7.10268 3.73662L6.84406 3.75442L6.85297 5.09846C6.86189 7.13677 7.00458 7.65303 7.99447 9.21069C8.7525 10.3945 9.27866 11.338 9.4481 11.8187C10.2329 14.0439 10.4737 14.391 11.6419 14.9607C12.614 15.4324 13.0777 15.6016 13.3988 15.6016C13.5058 15.6016 13.586 15.6016 13.6485 15.5838H13.9606V15.8241H14.023C13.9517 16.1356 14.0676 16.8655 14.2281 17.1859C14.4778 17.6666 14.7989 17.8713 16.1455 18.4232C18.375 19.3399 21.0325 19.9541 23.3423 20.0965C25.3042 20.2122 27.3286 19.8918 27.498 19.4379C27.5159 19.3132 27.4891 19.1174 27.4802 19.064C27.4802 19.0462 27.4089 18.8415 27.3197 18.619C26.963 17.7378 26.3655 16.8922 25.5093 16.0644C24.3678 14.9607 23.262 14.3376 21.2466 13.6345C20.2745 13.2962 20.1407 13.2339 20.0872 13.1093C20.0337 12.9669 20.4885 12.0768 21.523 10.3144C22.611 8.45411 22.9766 7.74204 23.0569 7.31479C23.1639 6.71843 23.1907 5.22307 23.1282 3.95024C22.9945 1.49359 22.718 0.149545 22.3256 0.0249317C22.2543 0.00712982 22.2097 -0.00177002 22.1562 -0.00177002ZM21.7014 17.6132H21.7549V17.631C21.737 17.6221 21.7192 17.6132 21.7014 17.6132Z" fill="#72654F"/>
<path d="M2.39402 21.6186C1.80543 21.5384 1.08308 21.3693 1.01174 21.2981C0.967146 21.2536 1.01174 21.2447 1.13659 21.2714C2.30484 21.5028 3.80306 21.485 5.14967 21.2091C6.43385 20.951 8.26203 20.3635 8.45823 20.141C8.47607 20.1232 8.73469 19.9719 9.0379 19.8117C10.8215 18.8593 12.3465 17.5419 13.2383 16.1712C13.4523 15.8418 13.6663 15.557 13.702 15.5481C13.8268 15.5125 11.9719 12.2014 9.97428 8.89022C8.91305 7.11894 7.92315 5.45447 7.77155 5.18744C7.62886 4.92041 7.38807 4.52877 7.23647 4.31515C6.95109 3.91461 6.96001 3.78109 7.25431 4.00362C7.49509 4.18163 7.51293 4.20834 8.12826 5.12513C9.13599 6.61159 11.5617 10.6437 13.2828 13.6967C13.6663 14.3732 13.9784 14.9251 13.9874 14.9429C14.0141 14.9696 14.683 13.9014 15.8601 11.9877C16.3774 11.1422 17.0997 9.96724 17.4743 9.36197C17.9737 8.55199 18.4374 7.653 19.2757 5.90841C19.9 4.60888 20.6045 3.12242 20.8453 2.61507C21.0861 2.10772 21.3001 1.69827 21.309 1.70717C21.3447 1.74278 20.114 4.75129 19.249 6.7273C18.6336 8.12475 18.4107 8.56089 16.413 12.0412C15.3964 13.8213 14.5759 15.2811 14.5849 15.29C14.5938 15.2989 17.2246 16.0911 20.4261 17.0613C27.7567 19.2687 27.507 19.1886 27.507 19.2687C27.507 19.4289 27.3732 19.4734 27.1681 19.3933C26.5973 19.153 14.683 15.6994 14.3173 15.6638C14.0587 15.6371 14.0141 15.7083 14.0141 16.1C14.0141 16.6874 12.2929 18.4587 10.7412 19.4645C10.0813 19.8918 8.57416 20.6751 8.01233 20.8798C7.47725 21.0756 6.07713 21.4227 5.3637 21.5473C4.71269 21.6453 2.95585 21.6987 2.39402 21.6186Z" fill="#CCCCCC"/>
<path d="M16.3239 22.9804C14.2728 22.838 13.051 22.7134 11.5439 22.4642C6.00581 21.5563 2.05516 19.7761 0.565857 17.5242C0.00402573 16.6786 -0.138661 15.7618 0.137795 14.8717C0.521268 13.6523 2.00165 12.2904 3.97252 11.338C4.6592 10.9998 5.06942 10.8485 4.94457 10.9642C4.91782 10.9909 4.61461 11.1778 4.27573 11.3647C2.75076 12.237 1.82329 13.1538 1.37739 14.2219C1.16336 14.7293 1.11877 15.5571 1.27038 16.0733C1.71627 17.6221 3.18774 18.9216 5.8007 20.0787C11.8917 22.7668 22.1919 23.3187 29.9862 21.3605C30.5124 21.227 32.0819 20.9332 32.0908 20.9332C32.7508 20.8709 29.8346 21.5563 28.9517 21.7877C26.8738 22.3218 25.0278 22.6333 22.5754 22.8647C21.6301 22.9626 17.18 23.0338 16.3239 22.9804Z" fill="#72654F"/>
<path d="M31.8055 22.2594C31.4398 22.1348 31.2436 21.9746 31.0028 21.6097C30.6015 20.9955 30.9047 20.0698 31.636 19.7138C31.9303 19.5714 32.0284 19.5536 32.3584 19.5803C33.2323 19.6604 33.8031 20.4882 33.5712 21.3337C33.4642 21.7432 32.9737 22.1971 32.5367 22.295C32.1443 22.393 32.1978 22.393 31.8055 22.2594Z" fill="#72654F"/>
</g>
<defs>
<clipPath id="clip0_190_336">
<rect width="90" height="23" fill="white"/>
</clipPath>
</defs>
</svg>
