<svg width="90" height="19" viewBox="0 0 90 19" fill="none" xmlns="http://www.w3.org/2000/svg">
<g clip-path="url(#clip0_190_362)">
<path d="M29.7278 15.4485C29.5924 15.4479 29.4626 15.393 29.3668 15.2958C29.2709 15.1986 29.2166 15.0669 29.2156 14.9292V4.34795C29.2162 4.21008 29.2704 4.07805 29.3663 3.98056C29.4622 3.88307 29.5921 3.828 29.7278 3.82733H32.5531C35.0637 3.82733 36.3864 4.88392 36.3864 7.35399C36.3864 9.6373 35.4778 11.0495 32.7506 11.0495H31.2103V14.9279C31.2093 15.0656 31.1549 15.1973 31.0591 15.2945C30.9632 15.3917 30.8335 15.4466 30.6981 15.4473L29.7278 15.4485ZM31.2103 9.36867H32.6311C33.7713 9.36867 34.3011 8.93248 34.3011 7.4883C34.3011 5.99296 33.804 5.54013 32.6474 5.54013H31.2103V9.36867Z" fill="#72654F"/>
<path d="M39.593 15.6327C38.1721 15.6327 37.8097 14.9113 37.8097 13.2484V3.74291C37.8104 3.60504 37.8645 3.47301 37.9604 3.37552C38.0564 3.27803 38.1863 3.22296 38.3219 3.22229H39.1802C39.3158 3.22296 39.4457 3.27803 39.5416 3.37552C39.6375 3.47301 39.6917 3.60504 39.6924 3.74291V13.4838C39.6924 13.8534 39.8082 14.0376 40.0397 14.1041C40.3694 14.2065 40.5846 14.3063 40.6337 14.6427L40.6841 14.9944C40.6948 15.0575 40.693 15.122 40.6788 15.1843C40.6645 15.2466 40.6382 15.3054 40.6012 15.3571C40.5642 15.4089 40.5175 15.4526 40.4636 15.4856C40.4097 15.5187 40.3499 15.5405 40.2876 15.5496C40.0597 15.6028 39.8268 15.6307 39.593 15.6327Z" fill="#72654F"/>
<path d="M47.4597 18.3715C43.7762 18.3715 41.5952 16.2544 41.5952 12.0728C41.5952 7.89126 44.1122 4.71765 48.2865 4.71765C51.9877 4.71765 54.0365 7.00096 54.0365 10.6619C54.0365 14.1042 52.7151 15.6328 50.7645 15.6328C49.3588 15.6328 48.7811 14.9446 48.5835 13.9532C47.9883 14.6926 47.2118 15.3808 46.2201 15.3808C45.2788 15.3808 44.5841 14.676 44.5841 13.0297C44.5946 12.4199 44.6676 11.8128 44.8018 11.2184C45.314 8.69969 46.3057 7.79276 47.7932 7.79276C48.5697 7.79276 49.097 8.24559 49.3789 8.53084L49.3953 8.46433C49.4228 8.32006 49.4989 8.19005 49.6105 8.09666C49.7221 8.00328 49.8623 7.95235 50.0069 7.95266H50.6676C50.7297 7.95301 50.7911 7.96728 50.8472 7.99446C50.9033 8.02164 50.9528 8.06107 50.9922 8.10992C51.0316 8.15878 51.06 8.21587 51.0752 8.27713C51.0904 8.33838 51.0922 8.4023 51.0804 8.46433L50.1541 12.8813C50.1106 13.0682 50.0882 13.2597 50.0874 13.4518C50.0874 14.0568 50.3857 14.3088 50.7808 14.3088C51.7876 14.3088 52.4508 13.3188 52.4508 10.6645C52.4508 7.57531 51.2943 6.05949 48.2211 6.05949C44.8836 6.05949 43.23 8.54491 43.23 12.0716C43.23 15.666 44.603 17.0091 47.4434 17.0091C48.0695 17.0181 48.6935 16.9319 49.2946 16.7533C49.4238 16.7131 49.5633 16.7256 49.6836 16.7881C49.8039 16.8507 49.8954 16.9584 49.9389 17.0885L50.022 17.3571C50.0444 17.421 50.054 17.4889 50.0503 17.5567C50.0466 17.6245 50.0297 17.6908 50.0005 17.7519C49.9714 17.813 49.9305 17.8675 49.8804 17.9124C49.8303 17.9573 49.7719 17.9916 49.7086 18.0133C48.9824 18.253 48.2233 18.3739 47.4597 18.3715ZM46.8657 14.0044C47.427 14.0044 47.9568 13.517 48.4199 13.0463L49.1461 9.55545C48.8944 9.33799 48.5684 9.06809 48.089 9.06809C47.2621 9.06809 46.9488 9.57208 46.5687 11.4192C46.4278 11.9917 46.3435 12.577 46.317 13.1665C46.3208 13.7857 46.5196 14.0044 46.8657 14.0044Z" fill="#72654F"/>
<path d="M56.0538 15.4485C55.9184 15.4479 55.7887 15.393 55.6928 15.2958C55.5969 15.1985 55.5426 15.0668 55.5416 14.9292V7.47166C55.5423 7.33379 55.5965 7.20176 55.6924 7.10427C55.7883 7.00678 55.9182 6.95171 56.0538 6.95104H56.5333C56.6781 6.95246 56.8183 7.00255 56.9321 7.09349C57.046 7.18442 57.127 7.3111 57.1625 7.45375L57.2443 7.87331C57.9227 7.20303 58.6828 6.7323 59.7072 6.7323C61.0286 6.7323 61.8051 7.35397 61.8051 8.94909V14.9279C61.8044 15.0657 61.7502 15.1976 61.6542 15.2948C61.5583 15.3921 61.4284 15.4469 61.2929 15.4473H60.4321C60.2966 15.4466 60.1669 15.3917 60.0711 15.2945C59.9752 15.1973 59.9209 15.0656 59.9199 14.9279V9.43645C59.9199 8.54104 59.6392 8.32742 59.0276 8.32742C58.416 8.32742 57.905 8.64721 57.4256 9.0834V14.9279C57.4246 15.0656 57.3703 15.1973 57.2744 15.2945C57.1785 15.3917 57.0488 15.4466 56.9134 15.4473L56.0538 15.4485Z" fill="#72654F"/>
<path d="M63.4914 8.4298C63.3557 8.42879 63.2258 8.37344 63.1299 8.27574C63.034 8.17805 62.9799 8.04588 62.9792 7.9079V7.4717C62.9799 7.33383 63.0341 7.2018 63.13 7.10431C63.2259 7.00682 63.3558 6.95175 63.4914 6.95108H63.8879V5.33422C63.8873 5.1885 63.9363 5.04707 64.0267 4.93397C64.1171 4.82087 64.2433 4.74308 64.3837 4.71382L65.2646 4.54497C65.3252 4.53441 65.3873 4.53734 65.4466 4.55357C65.5059 4.56979 65.5611 4.59892 65.6082 4.63895C65.6554 4.67897 65.6934 4.72893 65.7197 4.78537C65.746 4.84181 65.7599 4.90338 65.7605 4.96582V6.95108H66.883C67.0188 6.95175 67.1488 7.00678 67.2449 7.10423C67.3411 7.20168 67.3955 7.33371 67.3965 7.4717V7.9079C67.3958 8.0461 67.3415 8.17846 67.2454 8.27619C67.1492 8.37392 67.019 8.42912 66.883 8.4298H65.7554V13.3495C65.7554 13.989 65.9694 14.1886 66.3998 14.1886C66.5504 14.1852 66.7001 14.1629 66.8453 14.1221C66.8952 14.1065 66.9478 14.1017 66.9996 14.1078C67.0515 14.114 67.1015 14.131 67.1466 14.1578C67.1916 14.1846 67.2307 14.2206 67.2614 14.2636C67.2921 14.3065 67.3137 14.3555 67.3248 14.4073L67.4242 14.8448C67.4561 14.9845 67.4349 15.1313 67.3649 15.2558C67.2949 15.3803 67.1812 15.4733 67.0466 15.5164C66.7316 15.6174 66.403 15.6683 66.0726 15.6673C64.7839 15.6673 63.8916 15.1787 63.8916 13.7025V8.4298H63.4914Z" fill="#72654F"/>
<path d="M69.9776 15.4485C69.8814 15.4475 69.7895 15.4083 69.7215 15.3392C69.6535 15.27 69.6149 15.1766 69.6139 15.0789V4.28014C69.6152 4.18263 69.654 4.08951 69.7219 4.02067C69.7899 3.95183 69.8817 3.91274 69.9776 3.91174H70.4244C70.534 3.9138 70.6411 3.94606 70.7342 4.00508C70.8273 4.06409 70.9029 4.14766 70.9529 4.24688L74.522 11.6865C74.9196 12.4876 75.2562 13.3185 75.5287 14.1719H75.5615C75.4685 13.2399 75.4265 12.3034 75.4356 11.3667V4.28014C75.4366 4.18253 75.4753 4.08921 75.5433 4.0203C75.6113 3.9514 75.7033 3.91241 75.7993 3.91174H76.051C76.1468 3.91274 76.2384 3.95188 76.3062 4.02075C76.374 4.08962 76.4125 4.18275 76.4134 4.28014V15.0789C76.4128 15.1765 76.3744 15.2699 76.3066 15.3391C76.2388 15.4082 76.147 15.4475 76.051 15.4485H75.6206C75.511 15.4463 75.4039 15.414 75.3109 15.355C75.2178 15.296 75.1422 15.2125 75.092 15.1134L71.6564 8.00891C71.2012 7.10701 70.817 6.16986 70.5074 5.20626H70.4747C70.5662 6.24477 70.6049 7.28741 70.5905 8.32998V15.0814C70.5898 15.1792 70.5513 15.2729 70.4832 15.3421C70.4152 15.4113 70.323 15.4504 70.2268 15.4511L69.9776 15.4485Z" fill="#72654F"/>
<path d="M79.5773 11.5855C79.61 14.0159 80.2544 14.7603 81.7406 14.7603C82.3349 14.7727 82.9182 14.5966 83.4094 14.2564C83.4914 14.1988 83.592 14.1753 83.6905 14.1908C83.7891 14.2062 83.878 14.2595 83.9392 14.3395L84.0373 14.4572C84.0659 14.4953 84.0864 14.5389 84.0978 14.5854C84.1091 14.6319 84.1109 14.6802 84.1031 14.7274C84.0953 14.7747 84.0781 14.8198 84.0525 14.86C84.0269 14.9002 83.9935 14.9346 83.9543 14.9612C83.3603 15.3807 82.682 15.6161 81.7406 15.6161C79.8529 15.6161 78.5353 14.5416 78.5353 11.4511C78.5353 8.39522 79.8076 7.25293 81.5556 7.25293C83.3892 7.25293 84.3809 8.42976 84.3809 11.1659V11.3846C84.3823 11.41 84.3786 11.4353 84.3702 11.4592C84.3618 11.4831 84.3487 11.5051 84.3319 11.5238C84.315 11.5425 84.2946 11.5576 84.2719 11.5682C84.2492 11.5788 84.2246 11.5846 84.1997 11.5855H79.5773ZM79.5937 10.7975H83.3603C83.3603 8.75083 82.765 8.07543 81.543 8.07543C80.4356 8.07543 79.7082 8.69839 79.5937 10.7975Z" fill="#72654F"/>
<path d="M86.5317 8.24429H85.9364C85.8401 8.24296 85.7482 8.20341 85.6802 8.13409C85.6123 8.06477 85.5737 7.97118 85.5727 7.87333V7.79146C85.5737 7.69361 85.6123 7.60002 85.6802 7.5307C85.7482 7.46139 85.8401 7.42184 85.9364 7.42051H86.5317V5.67444C86.5319 5.57048 86.5661 5.46955 86.629 5.38756C86.6919 5.30557 86.7799 5.24718 86.879 5.22162L87.1596 5.15382C87.2013 5.14651 87.244 5.14831 87.2849 5.15912C87.3258 5.16992 87.364 5.18948 87.3969 5.21648C87.4298 5.24348 87.4566 5.27731 87.4756 5.3157C87.4946 5.35408 87.5053 5.39615 87.507 5.43908V7.42051H88.7944C88.8909 7.4215 88.9831 7.46091 89.0514 7.53026C89.1196 7.59961 89.1584 7.69339 89.1594 7.79146V7.87333C89.1584 7.9714 89.1196 8.06518 89.0514 8.13453C88.9831 8.20388 88.8909 8.24329 88.7944 8.24429H87.507V14.0543C87.507 14.5416 87.7209 14.7936 88.1677 14.7936C88.3702 14.7988 88.5718 14.7645 88.7617 14.6926C88.854 14.6656 88.9529 14.6748 89.0389 14.7184C89.1249 14.762 89.1917 14.8367 89.2261 14.9279C89.2459 14.9763 89.2561 15.0283 89.256 15.0807C89.2559 15.1332 89.2455 15.1851 89.2255 15.2334C89.2055 15.2818 89.1762 15.3256 89.1393 15.3623C89.1025 15.399 89.0588 15.4279 89.0109 15.4473C88.7272 15.5623 88.424 15.6193 88.1186 15.6148C87.2276 15.6148 86.5329 15.1953 86.5329 14.1029L86.5317 8.24429Z" fill="#72654F"/>
<path d="M25.7988 12.2033C20.4037 9.22796 14.6097 11.8426 13.5463 16.5896C13.5463 16.5896 23.0301 15.194 25.7988 12.2033Z" fill="#72654F"/>
<path d="M16.7378 1.18329C15.0527 1.86636 13.326 4.16118 12.4237 7.1749C11.646 9.77288 11.6686 12.2673 12.3469 13.8803C12.6502 12.8569 12.9497 11.991 13.389 11.1467C13.5777 10.7834 13.8584 10.9574 13.8508 11.2465C13.8445 11.4921 13.7879 11.9577 13.574 12.9823C13.501 13.3251 13.4104 13.7754 13.3097 14.2896C14.7922 13.3699 16.2344 11.2695 17.031 8.60372C17.9346 5.58745 17.7584 2.70422 16.7315 1.18457" fill="#72654F"/>
<path d="M11.5377 6.82955C11.5994 6.61721 11.6635 6.41127 11.7403 6.20532C9.83623 3.92713 7.5156 2.57121 5.77639 2.57889C5.38374 4.3774 6.27978 7.11993 8.22412 9.57464C9.04135 10.6195 10.0111 11.531 11.0997 12.2775C10.8229 10.7553 10.9399 8.82249 11.5377 6.82955Z" fill="#72654F"/>
<path d="M0.377563 12.2033C5.77265 9.22799 11.5667 11.8426 12.6301 16.5909C12.6301 16.5909 3.14621 15.194 0.377563 12.2033Z" fill="#72654F"/>
</g>
<defs>
<clipPath id="clip0_190_362">
<rect width="90" height="17.8571" fill="white" transform="translate(0 0.857117)"/>
</clipPath>
</defs>
</svg>
