<svg width="90" height="18" viewBox="0 0 90 18" fill="none" xmlns="http://www.w3.org/2000/svg">
<g clip-path="url(#clip0_190_261)">
<path d="M29.7278 14.5914C29.5924 14.5908 29.4626 14.5359 29.3668 14.4387C29.2709 14.3414 29.2166 14.2097 29.2156 14.0721V3.49084C29.2162 3.35297 29.2704 3.22093 29.3663 3.12344C29.4622 3.02595 29.5921 2.97089 29.7278 2.97021H32.5531C35.0637 2.97021 36.3864 4.02681 36.3864 6.49687C36.3864 8.78018 35.4778 10.1924 32.7506 10.1924H31.2103V14.0708C31.2093 14.2085 31.1549 14.3402 31.0591 14.4374C30.9632 14.5346 30.8335 14.5895 30.6981 14.5901L29.7278 14.5914ZM31.2103 8.51156H32.6311C33.7713 8.51156 34.3011 8.07536 34.3011 6.63118C34.3011 5.13584 33.804 4.68302 32.6474 4.68302H31.2103V8.51156Z" fill="#362D31"/>
<path d="M39.593 14.7756C38.1721 14.7756 37.8097 14.0542 37.8097 12.3913V2.88579C37.8104 2.74792 37.8645 2.61589 37.9604 2.5184C38.0564 2.42091 38.1863 2.36585 38.3219 2.36517H39.1802C39.3158 2.36585 39.4457 2.42091 39.5416 2.5184C39.6375 2.61589 39.6917 2.74792 39.6924 2.88579V12.6266C39.6924 12.9963 39.8082 13.1805 40.0397 13.247C40.3694 13.3494 40.5846 13.4491 40.6337 13.7856L40.6841 14.1373C40.6948 14.2003 40.693 14.2649 40.6788 14.3272C40.6645 14.3895 40.6382 14.4483 40.6012 14.5C40.5642 14.5518 40.5175 14.5955 40.4636 14.6285C40.4097 14.6616 40.3499 14.6833 40.2876 14.6925C40.0597 14.7457 39.8268 14.7736 39.593 14.7756Z" fill="#362D31"/>
<path d="M47.4597 17.5143C43.7762 17.5143 41.5952 15.3973 41.5952 11.2157C41.5952 7.03414 44.1122 3.86053 48.2865 3.86053C51.9877 3.86053 54.0365 6.14384 54.0365 9.80481C54.0365 13.247 52.7151 14.7756 50.7645 14.7756C49.3588 14.7756 48.7811 14.0875 48.5835 13.0961C47.9883 13.8355 47.2118 14.5237 46.2201 14.5237C45.2788 14.5237 44.5841 13.8188 44.5841 12.1725C44.5946 11.5627 44.6676 10.9557 44.8018 10.3613C45.314 7.84257 46.3057 6.93565 47.7932 6.93565C48.5697 6.93565 49.097 7.38847 49.3789 7.67373L49.3953 7.60721C49.4228 7.46294 49.4989 7.33293 49.6105 7.23954C49.7221 7.14616 49.8623 7.09524 50.0069 7.09554H50.6676C50.7297 7.09589 50.7911 7.11016 50.8472 7.13735C50.9033 7.16453 50.9528 7.20395 50.9922 7.25281C51.0316 7.30167 51.06 7.35875 51.0752 7.42001C51.0904 7.48127 51.0922 7.54518 51.0804 7.60721L50.1541 12.0242C50.1106 12.2111 50.0882 12.4025 50.0874 12.5947C50.0874 13.1997 50.3857 13.4517 50.7808 13.4517C51.7876 13.4517 52.4508 12.4616 52.4508 9.80737C52.4508 6.71819 51.2943 5.20238 48.2211 5.20238C44.8836 5.20238 43.23 7.6878 43.23 11.2145C43.23 14.8089 44.603 16.152 47.4434 16.152C48.0695 16.161 48.6935 16.0747 49.2946 15.8962C49.4238 15.856 49.5633 15.8685 49.6836 15.931C49.8039 15.9936 49.8954 16.1013 49.9389 16.2313L50.022 16.5C50.0444 16.5639 50.054 16.6318 50.0503 16.6996C50.0466 16.7674 50.0297 16.8337 50.0005 16.8948C49.9714 16.9559 49.9305 17.0104 49.8804 17.0553C49.8303 17.1002 49.7719 17.1345 49.7086 17.1562C48.9824 17.3959 48.2233 17.5167 47.4597 17.5143ZM46.8657 13.1473C47.427 13.1473 47.9568 12.6599 48.4199 12.1892L49.1461 8.69834C48.8944 8.48088 48.5684 8.21097 48.089 8.21097C47.2621 8.21097 46.9488 8.71497 46.5687 10.5621C46.4278 11.1346 46.3435 11.7199 46.317 12.3094C46.3208 12.9285 46.5196 13.1473 46.8657 13.1473Z" fill="#362D31"/>
<path d="M56.0538 14.5914C55.9184 14.5907 55.7887 14.5359 55.6928 14.4386C55.5969 14.3414 55.5426 14.2097 55.5416 14.0721V6.61454C55.5423 6.47667 55.5965 6.34464 55.6924 6.24715C55.7883 6.14966 55.9182 6.09459 56.0538 6.09392H56.5333C56.6781 6.09534 56.8183 6.14543 56.9321 6.23637C57.046 6.32731 57.127 6.45398 57.1625 6.59663L57.2443 7.0162C57.9227 6.34592 58.6828 5.87518 59.7072 5.87518C61.0286 5.87518 61.8051 6.49686 61.8051 8.09198V14.0708C61.8044 14.2085 61.7502 14.3404 61.6542 14.4377C61.5583 14.535 61.4284 14.5898 61.2929 14.5901H60.4321C60.2966 14.5895 60.1669 14.5346 60.0711 14.4374C59.9752 14.3401 59.9209 14.2084 59.9199 14.0708V8.57934C59.9199 7.68392 59.6392 7.4703 59.0276 7.4703C58.416 7.4703 57.905 7.79009 57.4256 8.22629V14.0708C57.4246 14.2084 57.3703 14.3401 57.2744 14.4374C57.1785 14.5346 57.0488 14.5895 56.9134 14.5901L56.0538 14.5914Z" fill="#362D31"/>
<path d="M63.4914 7.57268C63.3557 7.57167 63.2258 7.51632 63.1299 7.41863C63.034 7.32093 62.9799 7.18877 62.9792 7.05078V6.61458C62.9799 6.47671 63.0341 6.34468 63.13 6.24719C63.2259 6.1497 63.3558 6.09464 63.4914 6.09396H63.8879V4.4771C63.8873 4.33138 63.9363 4.18996 64.0267 4.07686C64.1171 3.96376 64.2433 3.88596 64.3837 3.8567L65.2646 3.68785C65.3252 3.67729 65.3873 3.68022 65.4466 3.69645C65.5059 3.71267 65.5611 3.74181 65.6082 3.78183C65.6554 3.82185 65.6934 3.87181 65.7197 3.92825C65.746 3.98469 65.7599 4.04626 65.7605 4.1087V6.09396H66.883C67.0188 6.09463 67.1488 6.14966 67.2449 6.24711C67.3411 6.34457 67.3955 6.4766 67.3965 6.61458V7.05078C67.3958 7.18899 67.3415 7.32135 67.2454 7.41907C67.1492 7.5168 67.019 7.57201 66.883 7.57268H65.7554V12.4923C65.7554 13.1319 65.9694 13.3315 66.3998 13.3315C66.5504 13.3281 66.7001 13.3058 66.8453 13.265C66.8952 13.2494 66.9478 13.2446 66.9996 13.2507C67.0515 13.2569 67.1015 13.2739 67.1466 13.3007C67.1916 13.3275 67.2307 13.3635 67.2614 13.4065C67.2921 13.4494 67.3137 13.4984 67.3248 13.5502L67.4242 13.9877C67.4561 14.1274 67.4349 14.2742 67.3649 14.3987C67.2949 14.5232 67.1812 14.6162 67.0466 14.6593C66.7316 14.7603 66.403 14.8112 66.0726 14.8102C64.7839 14.8102 63.8916 14.3216 63.8916 12.8454V7.57268H63.4914Z" fill="#362D31"/>
<path d="M69.9776 14.5914C69.8814 14.5904 69.7895 14.5511 69.7215 14.482C69.6535 14.4129 69.6149 14.3195 69.6139 14.2217V3.42303C69.6152 3.32551 69.654 3.23239 69.7219 3.16355C69.7899 3.09471 69.8817 3.05562 69.9776 3.05463H70.4244C70.534 3.05669 70.6411 3.08894 70.7342 3.14796C70.8273 3.20698 70.9029 3.29054 70.9529 3.38977L74.522 10.8294C74.9196 11.6305 75.2562 12.4614 75.5287 13.3148H75.5615C75.4685 12.3828 75.4265 11.4463 75.4356 10.5096V3.42303C75.4366 3.32541 75.4753 3.2321 75.5433 3.16319C75.6113 3.09428 75.7033 3.05529 75.7993 3.05463H76.051C76.1468 3.05563 76.2384 3.09476 76.3062 3.16363C76.374 3.23251 76.4125 3.32563 76.4134 3.42303V14.2217C76.4128 14.3194 76.3744 14.4128 76.3066 14.482C76.2388 14.5511 76.147 14.5904 76.051 14.5914H75.6206C75.511 14.5892 75.4039 14.5569 75.3109 14.4979C75.2178 14.4389 75.1422 14.3554 75.092 14.2563L71.6564 7.15179C71.2012 6.24989 70.817 5.31274 70.5074 4.34914H70.4747C70.5662 5.38766 70.6049 6.43029 70.5905 7.47286V14.2243C70.5898 14.3221 70.5513 14.4158 70.4832 14.485C70.4152 14.5541 70.323 14.5933 70.2268 14.594L69.9776 14.5914Z" fill="#8EB533"/>
<path d="M79.5773 10.7283C79.61 13.1588 80.2544 13.9032 81.7406 13.9032C82.3349 13.9156 82.9182 13.7395 83.4094 13.3992C83.4914 13.3417 83.592 13.3182 83.6905 13.3337C83.7891 13.3491 83.878 13.4023 83.9392 13.4824L84.0373 13.6001C84.0659 13.6382 84.0864 13.6818 84.0978 13.7283C84.1091 13.7748 84.1109 13.8231 84.1031 13.8703C84.0953 13.9176 84.0781 13.9627 84.0525 14.0029C84.0269 14.0431 83.9935 14.0775 83.9543 14.1041C83.3603 14.5236 82.682 14.759 81.7406 14.759C79.8529 14.759 78.5353 13.6845 78.5353 10.594C78.5353 7.53811 79.8076 6.39581 81.5556 6.39581C83.3892 6.39581 84.3809 7.57264 84.3809 10.3088V10.5275C84.3823 10.5529 84.3786 10.5782 84.3702 10.6021C84.3618 10.626 84.3487 10.648 84.3319 10.6667C84.315 10.6854 84.2946 10.7005 84.2719 10.7111C84.2492 10.7217 84.2246 10.7275 84.1997 10.7283H79.5773ZM79.5937 9.94038H83.3603C83.3603 7.89372 82.765 7.21832 81.543 7.21832C80.4356 7.21832 79.7082 7.84127 79.5937 9.94038Z" fill="#8EB533"/>
<path d="M86.5317 7.38717H85.9364C85.8401 7.38584 85.7482 7.34629 85.6802 7.27697C85.6123 7.20765 85.5737 7.11407 85.5727 7.01621V6.93435C85.5737 6.83649 85.6123 6.7429 85.6802 6.67359C85.7482 6.60427 85.8401 6.56472 85.9364 6.56339H86.5317V4.81733C86.5319 4.71336 86.5661 4.61243 86.629 4.53044C86.6919 4.44845 86.7799 4.39007 86.879 4.3645L87.1596 4.29671C87.2013 4.28939 87.244 4.29119 87.2849 4.302C87.3258 4.31281 87.364 4.33236 87.3969 4.35937C87.4298 4.38637 87.4566 4.42019 87.4756 4.45858C87.4946 4.49697 87.5053 4.53903 87.507 4.58196V6.56339H88.7944C88.8909 6.56439 88.9831 6.60379 89.0514 6.67314C89.1196 6.7425 89.1584 6.83627 89.1594 6.93435V7.01621C89.1584 7.11429 89.1196 7.20806 89.0514 7.27742C88.9831 7.34677 88.8909 7.38617 88.7944 7.38717H87.507V13.1971C87.507 13.6845 87.7209 13.9365 88.1677 13.9365C88.3702 13.9417 88.5718 13.9074 88.7617 13.8354C88.854 13.8085 88.9529 13.8177 89.0389 13.8613C89.1249 13.9049 89.1917 13.9796 89.2261 14.0708C89.2459 14.1192 89.2561 14.1712 89.256 14.2236C89.2559 14.2761 89.2455 14.328 89.2255 14.3763C89.2055 14.4246 89.1762 14.4684 89.1393 14.5052C89.1025 14.5419 89.0588 14.5708 89.0109 14.5901C88.7272 14.7052 88.424 14.7622 88.1186 14.7577C87.2276 14.7577 86.5329 14.3382 86.5329 13.2457L86.5317 7.38717Z" fill="#8EB533"/>
<path d="M25.7988 11.3462C20.4037 8.37084 14.6097 10.9855 13.5463 15.7324C13.5463 15.7324 23.0301 14.3369 25.7988 11.3462Z" fill="#8EB533"/>
<path d="M16.7378 0.326172C15.0527 1.00925 13.326 3.30407 12.4237 6.31778C11.646 8.91576 11.6686 11.4101 12.3469 13.0232C12.6502 11.9998 12.9497 11.1338 13.389 10.2896C13.5777 9.9263 13.8584 10.1003 13.8508 10.3894C13.8445 10.635 13.7879 11.1006 13.574 12.1252C13.501 12.468 13.4104 12.9183 13.3097 13.4325C14.7922 12.5128 16.2344 10.4124 17.031 7.74661C17.9346 4.73034 17.7584 1.8471 16.7315 0.327451" fill="#8EB533"/>
<path d="M11.5377 5.97244C11.5994 5.7601 11.6635 5.55415 11.7403 5.34821C9.83623 3.07001 7.5156 1.7141 5.77639 1.72177C5.38374 3.52028 6.27978 6.26281 8.22412 8.71753C9.04135 9.76236 10.0111 10.6739 11.0997 11.4204C10.8229 9.89819 10.9399 7.96538 11.5377 5.97244Z" fill="#8EB533"/>
<path d="M0.377563 11.3462C5.77265 8.37087 11.5667 10.9855 12.6301 15.7337C12.6301 15.7337 3.14621 14.3369 0.377563 11.3462Z" fill="#8EB533"/>
</g>
<defs>
<clipPath id="clip0_190_261">
<rect width="90" height="17.8571" fill="white"/>
</clipPath>
</defs>
</svg>
