<svg width="103" height="36" viewBox="0 0 103 36" fill="none" xmlns="http://www.w3.org/2000/svg">
<g clip-path="url(#clip0_226_426)">
<path d="M2.92497 0.408783L100.221 0.580654C101.58 0.580654 102.794 0.379751 102.794 3.28994L102.675 35.2858H0.46936V3.17033C0.46936 1.73614 0.608644 0.408783 2.92497 0.408783Z" fill="#72654F"/>
<path d="M29.6312 16.7795C29.6348 23.2328 24.3981 28.4679 17.9349 28.4725C11.4716 28.476 6.22917 23.2467 6.22449 16.7934V16.7795C6.22098 10.325 11.4576 5.08993 17.922 5.08645C24.3853 5.0818 29.6277 10.3123 29.6324 16.7655C29.6312 16.769 29.6312 16.7737 29.6312 16.7795ZM54.384 3.83922C59.4743 3.83922 63.6013 7.95948 63.6013 13.0424C63.6013 18.1254 59.4743 22.2468 54.384 22.2468C49.2925 22.2468 45.1667 18.1266 45.1667 13.0424C45.1655 7.95948 49.2925 3.83922 54.384 3.83922ZM87.8965 12.8404C87.9 17.8502 83.835 21.9147 78.8173 21.9193C73.8007 21.9228 69.7287 17.8641 69.724 12.8543V12.8404C69.7217 7.83058 73.7866 3.76606 78.8044 3.76258C83.8221 3.75909 87.893 7.8178 87.8965 12.8276V12.8404Z" fill="white"/>
<path d="M27.4425 7.26039C30.0374 9.85239 31.3354 13.025 31.3354 16.7795C31.3354 20.5339 30.0608 23.6729 27.5092 26.1975C24.8019 28.8557 21.6031 30.1854 17.9115 30.1854C14.2643 30.1854 11.1205 28.8674 8.48111 26.2312C5.84057 23.5939 4.52147 20.4457 4.52147 16.7806C4.52147 13.1156 5.84057 9.94181 8.48111 7.26039C11.0538 4.66839 14.1976 3.37239 17.9115 3.37239C21.671 3.37239 24.8476 4.66839 27.4425 7.26039ZM10.2286 9.00348C8.034 11.2157 6.93728 13.8089 6.93728 16.7818C6.93728 19.7559 8.02347 22.3246 10.1947 24.4928C12.3659 26.6609 14.9514 27.7455 17.9513 27.7455C20.9511 27.7455 23.5589 26.6516 25.7746 24.4603C27.8779 22.4257 28.9313 19.8674 28.9313 16.783C28.9313 13.7218 27.8615 11.1228 25.7242 8.98839C23.587 6.85393 20.9956 5.78671 17.9513 5.78671C14.9069 5.78671 12.3319 6.85858 10.2286 9.00348ZM16.0025 15.4742C15.6665 14.7449 15.1656 14.3803 14.4961 14.3803C13.3127 14.3803 12.7217 15.1757 12.7217 16.7655C12.7217 18.3565 13.3127 19.152 14.4961 19.152C15.2768 19.152 15.8362 18.7653 16.171 17.9884L17.8108 18.8605C17.0289 20.2471 15.8561 20.9415 14.2924 20.9415C13.0869 20.9415 12.1201 20.5734 11.3944 19.8337C10.6675 19.0951 10.3047 18.0778 10.3047 16.7806C10.3047 15.5044 10.6792 14.4929 11.4271 13.7427C12.1751 12.9925 13.1079 12.6186 14.2245 12.6186C15.8784 12.6186 17.0617 13.2689 17.7769 14.5684L16.0025 15.4742ZM23.7193 15.4742C23.3833 14.7449 22.8917 14.3803 22.2433 14.3803C21.0366 14.3803 20.4326 15.1757 20.4326 16.7655C20.4326 18.3565 21.0366 19.152 22.2433 19.152C23.0264 19.152 23.5741 18.7653 23.8866 17.9884L25.5639 18.8605C24.7832 20.2471 23.6127 20.9415 22.0514 20.9415C20.847 20.9415 19.8825 20.5734 19.1568 19.8337C18.4323 19.0951 18.0706 18.0778 18.0706 16.7806C18.0706 15.5044 18.4382 14.4929 19.1744 13.7427C19.9094 12.9925 20.8458 12.6186 21.9835 12.6186C23.6338 12.6186 24.816 13.2689 25.5288 14.5684L23.7193 15.4742ZM101.072 0H1.92774C0.864966 0 0 0.864 0 1.92542V35.5645C0 35.8049 0.195466 36 0.435409 36H102.565C102.805 36 103 35.8049 103 35.5645V1.92542C103 0.864 102.135 0 101.072 0ZM1.92774 0.869806H101.071C101.654 0.869806 102.128 1.34361 102.128 1.92542V25.2778H31.2675C28.6703 29.9671 23.6666 33.1502 17.9232 33.1502C12.1786 33.1502 7.17489 29.9706 4.57999 25.2778H0.870818V1.92542C0.870818 1.34361 1.34485 0.869806 1.92774 0.869806ZM78.7447 2.90323C75.9883 2.90323 73.6544 3.86361 71.7454 5.78439C69.7848 7.77252 68.8052 10.1241 68.8052 12.8415C68.8052 15.559 69.7848 17.8943 71.7454 19.8488C73.7047 21.8032 76.0386 22.7799 78.7447 22.7799C81.4859 22.7799 83.8607 21.7939 85.8716 19.8232C87.763 17.9524 88.7123 15.624 88.7123 12.8415C88.7123 10.0591 87.7478 7.70632 85.8201 5.78439C83.8947 3.86361 81.5362 2.90323 78.7447 2.90323ZM78.7704 4.69161C81.0294 4.69161 82.9478 5.4871 84.5267 7.0769C86.1197 8.65045 86.918 10.5724 86.918 12.8415C86.918 15.127 86.1384 17.0245 84.5759 18.5319C82.9314 20.1542 80.9966 20.9659 78.7704 20.9659C76.5454 20.9659 74.6258 20.1635 73.0153 18.5574C71.4047 16.9502 70.5995 15.0457 70.5995 12.8427C70.5995 10.6397 71.4129 8.71781 73.041 7.07806C74.6001 5.48594 76.5114 4.69161 78.7704 4.69161ZM74.3332 11.4375C74.7312 8.93729 76.4939 7.60065 78.7025 7.60065C81.8815 7.60065 83.8162 9.90232 83.8162 12.9728C83.8162 15.9689 81.7562 18.2961 78.6534 18.2961C76.5185 18.2961 74.6071 16.9839 74.2583 14.4093H76.7666C76.8403 15.7459 77.71 16.2163 78.9507 16.2163C80.3658 16.2163 81.2846 14.904 81.2846 12.8985C81.2846 10.7942 80.4898 9.68052 79.001 9.68052C77.9078 9.68052 76.9656 10.0765 76.7666 11.4375L77.4958 11.4341L75.5212 13.4048L73.5479 11.4341L74.3332 11.4375ZM57.0515 10.3796C57.0515 10.0243 56.7635 9.73742 56.4077 9.73742H52.3369C51.9822 9.73742 51.6931 10.0243 51.6931 10.3796V14.4441H52.8296V19.2577H55.915V14.4441H57.0515V10.3796ZM54.3735 6.42194C55.1413 6.42194 55.7651 7.04439 55.7651 7.812C55.7651 8.57961 55.1413 9.20206 54.3735 9.20206C53.6045 9.20206 52.9818 8.57961 52.9818 7.812C52.9818 7.04439 53.6045 6.42194 54.3735 6.42194ZM54.3594 2.90323C51.603 2.90323 49.2691 3.86361 47.3589 5.78439C45.3984 7.77135 44.4188 10.1241 44.4188 12.8404C44.4188 15.5566 45.3984 17.8932 47.3589 19.8476C49.3183 21.8021 51.6522 22.7787 54.3594 22.7787C57.1006 22.7787 59.4755 21.7928 61.4851 19.8209C63.3801 17.9501 64.327 15.6228 64.327 12.8392C64.327 10.0556 63.3637 7.70516 61.436 5.78323C59.5106 3.86245 57.151 2.90323 54.3594 2.90323ZM54.3852 4.69045C56.6441 4.69045 58.5625 5.48594 60.1403 7.07574C61.7356 8.64929 62.5327 10.5712 62.5327 12.8392C62.5327 15.1246 61.7532 17.0222 60.1906 18.5295C58.5461 20.153 56.6114 20.9636 54.3852 20.9636C52.1601 20.9636 50.2406 20.1612 48.63 18.5539C47.0183 16.9479 46.2131 15.0434 46.2131 12.8392C46.2131 10.6374 47.0265 8.71548 48.6546 7.07574C50.216 5.48594 52.1262 4.69045 54.3852 4.69045Z" fill="black"/>
<path d="M81.0856 28.0695L83.2111 33.7459H81.9131L81.4835 32.4813H79.358L78.9121 33.7459H77.655L79.8039 28.0695H81.0856ZM81.1582 31.5499L80.4418 29.4677H80.4255L79.6846 31.5499H81.1582ZM74.043 32.3419C74.112 32.4755 74.2033 32.5823 74.3169 32.6636C74.4316 32.746 74.5638 32.8076 74.7171 32.8471C74.8728 32.8866 75.0308 32.9063 75.1947 32.9063C75.3059 32.9063 75.4253 32.897 75.5529 32.8796C75.6804 32.8622 75.7987 32.825 75.911 32.7716C76.021 32.7182 76.1147 32.6462 76.1872 32.5533C76.2622 32.4604 76.2996 32.3431 76.2996 32.1991C76.2996 32.0458 76.2504 31.9227 76.1521 31.8263C76.055 31.7299 75.9251 31.6521 75.7671 31.5871C75.6079 31.5232 75.4276 31.4686 75.2275 31.421C75.025 31.3722 74.8202 31.3188 74.6153 31.2608C74.4023 31.2073 74.1963 31.1423 73.9938 31.0668C73.7937 30.9902 73.6134 30.8903 73.4542 30.7672C73.2939 30.6464 73.1663 30.4943 73.068 30.3108C72.9708 30.1273 72.9217 29.9055 72.9217 29.6466C72.9217 29.3539 72.9837 29.1019 73.1089 28.8871C73.2318 28.6734 73.3969 28.4946 73.5982 28.3506C73.7995 28.2077 74.0266 28.102 74.2817 28.0324C74.5357 27.9639 74.7921 27.9302 75.0449 27.9302C75.3422 27.9302 75.6266 27.9627 75.8993 28.03C76.1709 28.0962 76.4143 28.2031 76.6262 28.3517C76.8392 28.4992 77.0077 28.6897 77.1318 28.9208C77.257 29.1507 77.3191 29.4306 77.3191 29.7604H76.1065C76.096 29.5908 76.0597 29.4491 76 29.3388C75.9379 29.2273 75.8583 29.1391 75.7577 29.0752C75.657 29.0113 75.5423 28.966 75.4124 28.9417C75.2837 28.915 75.1432 28.901 74.9899 28.901C74.8892 28.901 74.7885 28.9126 74.6879 28.9324C74.5872 28.9544 74.4971 28.9916 74.4163 29.0439C74.3344 29.0984 74.2654 29.1646 74.2127 29.2436C74.16 29.3226 74.1343 29.4236 74.1343 29.5455C74.1343 29.657 74.1565 29.7476 74.1975 29.8149C74.2408 29.8858 74.325 29.9485 74.4491 30.0066C74.5732 30.0646 74.7464 30.1239 74.9653 30.1819C75.1853 30.2388 75.4733 30.3131 75.8267 30.4037C75.9344 30.4246 76.0807 30.4629 76.268 30.5199C76.4565 30.5744 76.6425 30.6627 76.8287 30.7858C77.0148 30.9077 77.1751 31.0715 77.3109 31.2759C77.4455 31.4802 77.5134 31.7404 77.5134 32.0586C77.5134 32.3199 77.4619 32.5602 77.3612 32.782C77.2606 33.005 77.1107 33.1966 76.9118 33.358C76.7116 33.5218 76.4658 33.646 76.172 33.7366C75.8771 33.8272 75.5353 33.8713 75.1491 33.8713C74.8354 33.8713 74.5322 33.833 74.2373 33.7552C73.9435 33.6797 73.6825 33.5566 73.4566 33.3929C73.2318 33.2268 73.0516 33.0178 72.9193 32.7623C72.7871 32.508 72.7227 32.206 72.7285 31.8565H73.9411C73.94 32.0481 73.9739 32.2095 74.043 32.3419ZM53.8093 28.0695H55.2115L56.5435 30.312L57.8661 28.0695H59.259L57.1486 31.5673V33.7459H55.8962V31.536L53.8093 28.0695ZM51.4977 28.0695C51.768 28.0695 52.015 28.0939 52.2386 28.1415C52.4621 28.1891 52.6529 28.2669 52.8133 28.3749C52.9724 28.4841 53.0953 28.6293 53.1831 28.8081C53.2709 28.9881 53.3142 29.2122 53.3142 29.4759C53.3142 29.7627 53.2498 29.9996 53.1188 30.1912C52.99 30.3817 52.7957 30.5373 52.5417 30.658C52.8929 30.7602 53.1539 30.9356 53.3283 31.1876C53.5015 31.4408 53.5893 31.7439 53.5893 32.098C53.5893 32.3837 53.5319 32.6322 53.4207 32.8424C53.3095 33.0515 53.1585 33.2222 52.9689 33.3546C52.7805 33.4869 52.564 33.5857 52.3228 33.6495C52.0806 33.7134 51.8324 33.7448 51.5761 33.7448H48.8162V28.0684L51.4977 28.0695ZM51.3373 30.3642C51.5609 30.3642 51.7435 30.3108 51.8874 30.2063C52.0314 30.0995 52.104 29.9288 52.104 29.6907C52.104 29.5583 52.0794 29.4491 52.0314 29.3655C51.9834 29.2819 51.9202 29.2157 51.8394 29.1681C51.7587 29.1205 51.6686 29.0868 51.5644 29.0682C51.4602 29.0497 51.3525 29.0415 51.2413 29.0415H50.0709V30.3654H51.3373V30.3642ZM51.4099 32.7739C51.5328 32.7739 51.6498 32.7623 51.761 32.7391C51.8722 32.7147 51.9717 32.6752 52.056 32.6183C52.1414 32.5637 52.2081 32.4882 52.2596 32.393C52.3111 32.2978 52.3357 32.1759 52.3357 32.0272C52.3357 31.7369 52.2526 31.5279 52.0876 31.4048C51.9225 31.2805 51.7037 31.2178 51.4333 31.2178H50.0685V32.7751L51.4099 32.7739Z" fill="white"/>
</g>
<defs>
<clipPath id="clip0_226_426">
<rect width="103" height="36" fill="white"/>
</clipPath>
</defs>
</svg>
