<svg width="106" height="111" viewBox="0 0 106 111" fill="none" xmlns="http://www.w3.org/2000/svg">
<g clip-path="url(#clip0_198_450)">
<path d="M102.688 108.78H3.3125V106.283H51.8075V73.7768C28.8883 66.4057 28.62 45.3088 28.62 45.0938C28.62 44.4035 29.1533 43.845 29.8125 43.845C30.0079 43.845 45.7092 44.0601 51.8075 59.1283V39.3634C42.5689 38.7182 35.245 30.6429 35.245 20.8125V3.46875C35.245 2.77847 35.7783 2.22 36.4375 2.22C36.5799 2.22 46.1597 2.33447 52.3474 9.1471C53.6228 7.25316 58.0946 2.22 69.5625 2.22C70.2217 2.22 70.755 2.77847 70.755 3.46875V20.8125C70.755 30.6429 63.4278 38.7182 54.1925 39.3634V76.4721C60.2908 61.4038 75.9921 61.1888 76.1875 61.1888C76.8467 61.1888 77.38 61.7472 77.38 62.4375C77.38 63.1729 77.1117 80.3675 54.1925 91.0027V106.279H102.688V108.78ZM74.889 63.7626C70.2647 64.2135 55.1134 67.2903 54.2323 88.245C71.4241 79.8576 74.3822 67.7759 74.889 63.7626ZM31.0812 46.4153C31.5019 50.8692 34.2314 65.1466 51.7777 71.1441C50.9992 49.9292 35.6889 46.8593 31.0812 46.4153ZM37.63 4.77994V20.8125C37.63 29.689 44.5266 36.9075 53 36.9075C61.4734 36.9075 68.37 29.689 68.37 20.8125V4.73831C57.1207 5.11294 54.1859 10.7288 54.0633 10.9751L53.6526 10.7566C55.9349 13.9374 57.505 18.2977 57.505 24.2813H55.12C55.12 7.63819 41.7839 5.1511 37.63 4.77994Z" fill="#B2CB43"/>
</g>
<defs>
<clipPath id="clip0_198_450">
<rect width="106" height="111" fill="white"/>
</clipPath>
</defs>
</svg>
