<svg width="62" height="65" viewBox="0 0 62 65" fill="none" xmlns="http://www.w3.org/2000/svg">
<path fill-rule="evenodd" clip-rule="evenodd" d="M62 32.3317C62 50.1879 48.1207 64.6634 31 64.6634C13.8792 64.6634 0 50.1879 0 32.3317C0 14.4754 13.8792 0 31 0C48.1207 0 62 14.4754 62 32.3317ZM21.6059 22.5341C22.5138 21.5871 23.9859 21.5871 24.8939 22.5341L31 28.9023L37.1058 22.5341C38.0137 21.5872 39.4859 21.5872 40.3939 22.5341C41.3019 23.4811 41.3019 25.0165 40.3939 25.9633L34.2879 32.3317L40.3939 38.6998C41.3019 39.6468 41.3019 41.1822 40.3939 42.1292C39.4859 43.0762 38.0137 43.0762 37.1058 42.1292L31 35.7611L24.8939 42.1292C23.986 43.0762 22.5139 43.0762 21.6059 42.1292C20.698 41.1822 20.698 39.6468 21.6059 38.7001L27.7118 32.3317L21.6059 25.9633C20.6979 25.0164 20.6979 23.481 21.6059 22.5341Z" fill="white"/>
</svg>
