<svg width="37" height="40" viewBox="0 0 37 40" fill="none" xmlns="http://www.w3.org/2000/svg">
<path fill-rule="evenodd" clip-rule="evenodd" d="M36.78 19.7242C36.78 30.431 28.5464 39.1108 18.39 39.1108C8.23348 39.1108 0 30.431 0 19.7242C0 9.01719 8.23348 0.337479 18.39 0.337479C28.5464 0.337479 36.78 9.01719 36.78 19.7242ZM12.8172 13.8493C13.3558 13.2815 14.2291 13.2815 14.7677 13.8493L18.39 17.6678L22.0121 13.8494C22.5507 13.2815 23.4241 13.2815 23.9627 13.8494C24.5014 14.4172 24.5014 15.3378 23.9627 15.9056L20.3404 19.7242L23.9627 23.5426C24.5014 24.1104 24.5014 25.0311 23.9627 25.5989C23.4241 26.1667 22.5507 26.1667 22.0121 25.5989L18.39 21.7805L14.7677 25.5989C14.2291 26.1667 13.3558 26.1667 12.8172 25.5989C12.2786 25.0311 12.2786 24.1104 12.8172 23.5428L16.4394 19.7242L12.8172 15.9056C12.2785 15.3378 12.2785 14.4171 12.8172 13.8493Z" fill="#72654F"/>
</svg>
