<svg width="54" height="54" viewBox="0 0 54 54" fill="none" xmlns="http://www.w3.org/2000/svg">
<path d="M27 2C13.215 2 2 13.215 2 27C2 40.785 13.215 52 27 52C40.785 52 52 40.785 52 27C52 13.215 40.785 2 27 2ZM40.7282 33.1524C40.2845 33.5962 39.7029 33.8182 39.1212 33.8182C38.5395 33.8182 37.9579 33.5964 37.5142 33.1524L26.9997 22.6383L16.4858 33.1524C15.5983 34.04 14.1592 34.04 13.2717 33.1524C12.3841 32.265 12.3841 30.8259 13.2717 29.9383L25.3926 17.8171C25.8188 17.3909 26.3968 17.1514 26.9995 17.1514C27.6024 17.1514 28.1803 17.3908 28.6067 17.8171L40.7282 29.9383C41.6159 30.8259 41.6159 32.265 40.7282 33.1524Z" fill="#72654F" stroke="white" stroke-width="2.42424"/>
</svg>
