<svg width="37" height="37" viewBox="0 0 37 37" fill="none" xmlns="http://www.w3.org/2000/svg">
<g clip-path="url(#clip0_214_385)">
<path d="M37 18.5C37 8.2991 28.7009 0 18.5 0C8.29909 0 -7.62939e-06 8.2991 -7.62939e-06 18.5C-7.62939e-06 28.7009 8.29909 37 18.5 37C28.7009 37 37 28.7009 37 18.5ZM13.9472 28.6589C13.6188 28.3306 13.4545 27.9001 13.4545 27.4697C13.4545 27.0393 13.6187 26.6088 13.9472 26.2805L21.7276 18.4998L13.9472 10.7195C13.2904 10.0628 13.2904 8.99784 13.9472 8.34103C14.6039 7.68423 15.6688 7.68423 16.3256 8.34103L25.2953 17.3105C25.6107 17.6259 25.788 18.0536 25.788 18.4997C25.788 18.9458 25.6108 19.3734 25.2953 19.6889L16.3256 28.6589C15.6688 29.3158 14.6039 29.3158 13.9472 28.6589Z" fill="#72654F" stroke="white" stroke-width="2.42424"/>
</g>
<defs>
<clipPath id="clip0_214_385">
<rect width="37" height="37" fill="white" transform="matrix(0 -1 1 0 0 37)"/>
</clipPath>
</defs>
</svg>
