<svg width="66" height="66" viewBox="0 0 66 66" fill="none" xmlns="http://www.w3.org/2000/svg">
<path d="M2 33C2 50.0934 15.9066 64 33 64C50.0934 64 64 50.0934 64 33C64 15.9066 50.0934 2 33 2C15.9066 2 2 15.9066 2 33ZM40.629 15.9771C41.1793 16.5272 41.4545 17.2484 41.4545 17.9697C41.4545 18.691 41.1795 19.4122 40.629 19.9623L27.5915 33.0004L40.629 46.0377C41.7296 47.1381 41.7296 48.9225 40.629 50.0231C39.5286 51.1237 37.7441 51.1237 36.6435 50.0231L21.6132 34.9932C21.0847 34.4647 20.7877 33.7479 20.7877 33.0006C20.7877 32.253 21.0845 31.5364 21.6132 31.0077L36.6435 15.9771C37.7441 14.8763 39.5286 14.8763 40.629 15.9771Z" fill="white" stroke="#1E1E1E" stroke-width="2.42424"/>
</svg>
