<svg width="41" height="41" viewBox="0 0 41 41" fill="none" xmlns="http://www.w3.org/2000/svg">
<path d="M2 20.5C2 30.7009 10.2991 39 20.5 39C30.7009 39 39 30.7009 39 20.5C39 10.2991 30.7009 2 20.5 2C10.2991 2 2 10.2991 2 20.5ZM25.0528 10.3411C25.3812 10.6694 25.5455 11.0999 25.5455 11.5303C25.5455 11.9607 25.3813 12.3912 25.0528 12.7195L17.2724 20.5002L25.0528 28.2805C25.7096 28.9372 25.7096 30.0022 25.0528 30.659C24.3961 31.3158 23.3312 31.3158 22.6744 30.659L13.7047 21.6895C13.3893 21.3741 13.212 20.9464 13.212 20.5003C13.212 20.0542 13.3892 19.6266 13.7047 19.3111L22.6744 10.3411C23.3312 9.68423 24.3961 9.68423 25.0528 10.3411Z" fill="white" stroke="#72654F" stroke-width="2.42424"/>
</svg>
