<svg width="66" height="66" viewBox="0 0 66 66" fill="none" xmlns="http://www.w3.org/2000/svg">
<path d="M64 33C64 15.9066 50.0934 2 33 2C15.9066 2 2 15.9066 2 33C2 50.0934 15.9066 64 33 64C50.0934 64 64 50.0934 64 33ZM25.371 50.0229C24.8207 49.4728 24.5455 48.7516 24.5455 48.0303C24.5455 47.309 24.8205 46.5878 25.371 46.0377L38.4085 32.9996L25.371 19.9623C24.2704 18.8619 24.2704 17.0775 25.371 15.9769C26.4714 14.8763 28.2559 14.8763 29.3565 15.9769L44.3868 31.0068C44.9153 31.5353 45.2123 32.2521 45.2123 32.9994C45.2123 33.747 44.9155 34.4636 44.3868 34.9923L29.3565 50.0229C28.2559 51.1237 26.4714 51.1237 25.371 50.0229Z" fill="white" stroke="#1A1919" stroke-width="2.42424"/>
</svg>
