<svg width="41" height="41" viewBox="0 0 41 41" fill="none" xmlns="http://www.w3.org/2000/svg">
<path d="M20.5 2C10.2991 2 2 10.2991 2 20.5C2 30.7009 10.2991 39 20.5 39C30.7009 39 39 30.7009 39 20.5C39 10.2991 30.7009 2 20.5 2ZM30.6589 25.0528C30.3306 25.3812 29.9001 25.5455 29.4697 25.5455C29.0393 25.5455 28.6088 25.3813 28.2805 25.0528L20.4998 17.2724L12.7195 25.0528C12.0628 25.7096 10.9978 25.7096 10.341 25.0528C9.68423 24.3961 9.68423 23.3312 10.341 22.6744L19.3105 13.7047C19.6259 13.3893 20.0536 13.212 20.4997 13.212C20.9458 13.212 21.3734 13.3892 21.6889 13.7047L30.6589 22.6744C31.3158 23.3312 31.3158 24.3961 30.6589 25.0528Z" fill="white" stroke="#72654F" stroke-width="2.42424"/>
</svg>
