<svg width="41" height="41" viewBox="0 0 41 41" fill="none" xmlns="http://www.w3.org/2000/svg">
<path d="M20.5 39C30.7009 39 39 30.7009 39 20.5C39 10.2991 30.7009 2 20.5 2C10.2991 2 2 10.2991 2 20.5C2 30.7009 10.2991 39 20.5 39ZM10.3411 15.9472C10.6694 15.6188 11.0999 15.4545 11.5303 15.4545C11.9607 15.4545 12.3912 15.6187 12.7195 15.9472L20.5002 23.7276L28.2805 15.9472C28.9372 15.2904 30.0022 15.2904 30.659 15.9472C31.3158 16.6039 31.3158 17.6688 30.659 18.3256L21.6895 27.2953C21.3741 27.6107 20.9464 27.788 20.5003 27.788C20.0542 27.788 19.6266 27.6108 19.3111 27.2953L10.3411 18.3256C9.68423 17.6688 9.68423 16.6039 10.3411 15.9472Z" fill="white" stroke="#72654F" stroke-width="2.42424"/>
</svg>
