<svg width="48" height="45" viewBox="0 0 48 45" fill="none" xmlns="http://www.w3.org/2000/svg">
<path fill-rule="evenodd" clip-rule="evenodd" d="M48 22.4592C48 34.863 37.2547 44.9185 24 44.9185C10.7452 44.9185 0 34.863 0 22.4592C0 10.0553 10.7452 0 24 0C37.2547 0 48 10.0553 48 22.4592ZM16.7271 15.6533C17.43 14.9955 18.5697 14.9955 19.2727 15.6533L24 20.077L28.727 15.6533C29.43 14.9955 30.5698 14.9955 31.2727 15.6533C31.9757 16.3111 31.9757 17.3777 31.2727 18.0354L26.5454 22.4592L31.2727 26.8828C31.9757 27.5406 31.9757 28.6072 31.2727 29.265C30.5698 29.9229 29.43 29.9229 28.727 29.265L24 24.8415L19.2727 29.265C18.5698 29.9229 17.4301 29.9229 16.7272 29.265C16.0242 28.6072 16.0242 27.5406 16.7272 26.883L21.4543 22.4592L16.7271 18.0354C16.0242 17.3776 16.0242 16.3111 16.7271 15.6533Z" fill="#E99B77"/>
</svg>
