<svg width="34" height="34" viewBox="0 0 34 34" fill="none" xmlns="http://www.w3.org/2000/svg">
<circle cx="17" cy="17" r="17" fill="#828282"/>
<path d="M24.5807 13.778L25.2274 17.5177C25.3889 18.4518 24.6706 19.3062 23.7237 19.3062H18.9744C18.5037 19.3062 18.1452 19.7287 18.2214 20.1937L18.8289 23.9012C18.9275 24.5036 18.8994 25.1198 18.7461 25.7106C18.6192 26.2 18.2416 26.5929 17.745 26.7525L17.6121 26.7951C17.312 26.8916 16.9845 26.8691 16.7015 26.7328C16.3901 26.5828 16.1622 26.309 16.0778 25.9834L15.6417 24.3025C15.503 23.7676 15.3009 23.2512 15.0403 22.7635C14.6596 22.0507 14.0709 21.4802 13.459 20.953L12.1401 19.8165C11.7683 19.496 11.573 19.0161 11.6153 18.5268L12.3598 9.91686C12.4281 9.12712 13.0884 8.52084 13.8802 8.52084H18.1414C21.3326 8.52084 24.056 10.7443 24.5807 13.778Z" fill="white"/>
<path fill-rule="evenodd" clip-rule="evenodd" d="M8.72036 19.993C9.08819 20.0089 9.40323 19.7322 9.43494 19.3654L10.3256 9.06524C10.3828 8.4036 9.86162 7.83334 9.19615 7.83334C8.56932 7.83334 8.0625 8.34186 8.0625 8.9675V19.3062C8.0625 19.6743 8.35253 19.9772 8.72036 19.993Z" fill="white"/>
</svg>
