<svg width="25" height="25" viewBox="0 0 25 25" fill="none" xmlns="http://www.w3.org/2000/svg">
<path d="M18.75 11.2708C18.4737 11.2708 18.2088 11.3806 18.0134 11.5759C17.8181 11.7713 17.7083 12.0362 17.7083 12.3125V19.7917C17.7083 20.0679 17.5986 20.3329 17.4032 20.5282C17.2079 20.7236 16.9429 20.8333 16.6666 20.8333H5.20831C4.93205 20.8333 4.66709 20.7236 4.47174 20.5282C4.27639 20.3329 4.16665 20.0679 4.16665 19.7917V8.33334C4.16665 8.05707 4.27639 7.79212 4.47174 7.59677C4.66709 7.40142 4.93205 7.29167 5.20831 7.29167H12.6875C12.9637 7.29167 13.2287 7.18192 13.4241 6.98657C13.6194 6.79122 13.7291 6.52627 13.7291 6.25C13.7291 5.97374 13.6194 5.70878 13.4241 5.51343C13.2287 5.31808 12.9637 5.20834 12.6875 5.20834H5.20831C4.37951 5.20834 3.58466 5.53758 2.9986 6.12363C2.41255 6.70968 2.08331 7.50453 2.08331 8.33334V19.7917C2.08331 20.6205 2.41255 21.4153 2.9986 22.0014C3.58466 22.5874 4.37951 22.9167 5.20831 22.9167H16.6666C17.4954 22.9167 18.2903 22.5874 18.8764 22.0014C19.4624 21.4153 19.7916 20.6205 19.7916 19.7917V12.3125C19.7916 12.0362 19.6819 11.7713 19.4866 11.5759C19.2912 11.3806 19.0262 11.2708 18.75 11.2708ZM22.8333 2.72917C22.7276 2.47464 22.5253 2.27237 22.2708 2.16667C22.1456 2.11329 22.0111 2.08498 21.875 2.08334H15.625C15.3487 2.08334 15.0838 2.19308 14.8884 2.38843C14.6931 2.58378 14.5833 2.84874 14.5833 3.125C14.5833 3.40127 14.6931 3.66622 14.8884 3.86157C15.0838 4.05692 15.3487 4.16667 15.625 4.16667H19.3646L8.6354 14.8854C8.53776 14.9823 8.46027 15.0975 8.40739 15.2244C8.3545 15.3513 8.32727 15.4875 8.32727 15.625C8.32727 15.7625 8.3545 15.8987 8.40739 16.0256C8.46027 16.1525 8.53776 16.2678 8.6354 16.3646C8.73223 16.4622 8.84744 16.5397 8.97438 16.5926C9.10132 16.6455 9.23747 16.6727 9.37498 16.6727C9.51249 16.6727 9.64864 16.6455 9.77558 16.5926C9.90252 16.5397 10.0177 16.4622 10.1146 16.3646L20.8333 5.63542V9.375C20.8333 9.65127 20.9431 9.91622 21.1384 10.1116C21.3338 10.3069 21.5987 10.4167 21.875 10.4167C22.1512 10.4167 22.4162 10.3069 22.6116 10.1116C22.8069 9.91622 22.9166 9.65127 22.9166 9.375V3.125C22.915 2.98888 22.8867 2.8544 22.8333 2.72917Z" fill="#72654F"/>
</svg>
