<svg width="40" height="40" viewBox="0 0 40 40" fill="none" xmlns="http://www.w3.org/2000/svg">
<g clip-path="url(#clip0_311_1322)">
<path d="M35.1789 8.75H11.0938C8.4375 8.75 6.25 10.8992 6.25 13.5414V32.7086C6.25 35.3508 8.4375 37.5 11.0938 37.5H35.1562C37.8125 37.5 40 35.4547 40 32.8125V13.5414C40 10.8992 37.8375 8.75 35.1789 8.75ZM29.1516 13.5422C29.8614 13.5465 30.554 13.7609 31.1421 14.1584C31.7303 14.556 32.1875 15.1187 32.4561 15.7758C32.7248 16.4328 32.7928 17.1547 32.6517 17.8504C32.5106 18.546 32.1666 19.1843 31.6631 19.6847C31.1597 20.1851 30.5193 20.5252 29.8228 20.6622C29.1263 20.7991 28.4048 20.7266 27.7494 20.454C27.094 20.1814 26.534 19.7207 26.1401 19.1302C25.7462 18.5397 25.5359 17.8458 25.5359 17.1359C25.5397 16.1801 25.9225 15.2648 26.6003 14.5909C27.2782 13.917 28.1957 13.5395 29.1516 13.5414V13.5422ZM11.0617 35.1047C9.73359 35.1047 8.72891 34.0305 8.72891 32.7094V27.6445L15.7961 21.3328C16.487 20.7251 17.3826 20.4019 18.3024 20.4284C19.2221 20.455 20.0976 20.8292 20.7523 21.4758L25.6461 26.3281L16.818 35.1039L11.0617 35.1047ZM37.5 32.7086C37.4999 33.0235 37.4377 33.3352 37.3171 33.626C37.1964 33.9168 37.0196 34.181 36.7968 34.4035C36.574 34.6259 36.3095 34.8023 36.0185 34.9225C35.7275 35.0427 35.4156 35.1043 35.1008 35.1039H20.2344L29.3812 26.0156C30.0304 25.468 30.8516 25.1667 31.7008 25.1644C32.5501 25.1621 33.373 25.4591 34.025 26.0031L37.5 28.9523V32.7086Z" fill="white"/>
<path d="M30 2.5H5C3.67392 2.5 2.40215 3.02678 1.46447 3.96447C0.526784 4.90215 0 6.17392 0 7.5L0 27.5C0.000914466 28.6085 0.369562 29.6854 1.04818 30.562C1.72679 31.4385 2.67703 32.0652 3.75 32.3438V11.875C3.75 10.3832 4.34263 8.95242 5.39752 7.89752C6.45242 6.84263 7.88316 6.25 9.375 6.25H34.8438C34.5652 5.17703 33.9385 4.22679 33.062 3.54818C32.1854 2.86956 31.1085 2.50091 30 2.5Z" fill="white"/>
</g>
<defs>
<clipPath id="clip0_311_1322">
<rect width="40" height="40" fill="white"/>
</clipPath>
</defs>
</svg>
