<svg width="78" height="70" viewBox="0 0 78 70" fill="none" xmlns="http://www.w3.org/2000/svg">
<g clip-path="url(#clip0_557_122)">
<path opacity="0.97" d="M49.957 37.5509C50.3262 37.2423 50.6954 36.9031 51.0338 36.5635C52.8795 34.7122 54.3561 32.5524 55.402 30.2073C55.4941 30.0219 55.5869 29.8371 55.6789 29.6523C55.741 29.529 55.771 29.3747 55.8328 29.2508C56.7864 26.8132 57.3094 24.1906 57.3094 21.4752C57.3094 9.71933 47.773 0.154144 36.0524 0.154144H24.1781C22.6708 0.154144 21.1941 0.308468 19.7483 0.617129C15.7492 1.45026 12.0884 3.42497 9.13516 6.38715C8.79692 6.72629 8.48917 7.06594 8.18152 7.43621C7.78164 7.8992 7.41247 8.36181 7.04332 8.85554C6.92023 9.04099 6.76642 9.19467 6.64346 9.38013C6.12052 10.1515 5.65905 10.9537 5.22836 11.756C5.16681 11.8792 5.07447 12.0335 5.01319 12.1574C4.82855 12.5276 4.67464 12.9288 4.52095 13.2991C4.49173 13.3918 4.42889 13.515 4.36708 13.6077C3.38272 16.0762 2.8905 18.7297 2.8905 21.4451C2.8905 27.9863 5.87449 34.1575 10.9503 38.1686C9.93512 40.3902 8.61235 42.4576 6.98188 44.2781C6.3359 45.0186 6.15137 46.0676 6.58204 46.9624C6.85892 47.5798 7.38186 48.0424 7.99714 48.2584C8.05921 48.2908 8.08921 48.3232 8.15102 48.3232C8.18024 48.3232 8.24308 48.3232 8.27411 48.3556C8.45875 48.4205 8.67403 48.4477 8.88939 48.4477C10.9812 48.4477 13.0423 48.2013 15.0419 47.7381C18.0874 47.0592 20.979 45.8559 23.6247 44.1897C23.6867 44.1573 23.7167 44.1249 23.7783 44.0969L23.8075 44.0709C24.4227 43.6696 25.038 43.2379 25.6225 42.8058H36.0203C41.1883 42.8058 46.0796 40.9545 49.9557 37.5605L49.957 37.5509ZM24.5472 39.7108L24.1165 40.0499C23.3474 40.6672 22.5476 41.1915 21.717 41.7161C20.9172 42.2096 20.0866 42.6726 19.2561 43.0738C18.9178 43.2281 18.5485 43.3824 18.2101 43.5056C17.9642 43.5982 17.7487 43.7217 17.5333 43.7832C15.8721 44.4005 14.1186 44.8631 12.3345 45.11C12.2424 45.11 12.1498 45.1359 12.0267 45.1748C11.9974 45.1748 11.9346 45.1748 11.9036 45.1748C11.3191 45.2397 10.7346 45.298 10.1193 45.3291C11.3806 43.7555 12.4573 42.0585 13.3494 40.2688C13.3786 40.204 13.411 40.1761 13.4415 40.1145C13.4415 40.0821 13.4707 40.0497 13.4707 40.0218C13.7476 39.4356 14.0245 38.8184 14.2706 38.2322L14.5475 37.5534L14.7321 37.0904L14.0246 36.5969L13.7168 36.381C12.7017 35.6713 11.8096 34.8382 10.979 33.9742C7.81041 30.611 5.96466 26.1678 5.96466 21.4469C5.96466 19.1328 6.39536 16.8494 7.22596 14.7512C7.71812 13.4862 8.36417 12.252 9.16397 11.1103C9.4717 10.6785 9.81004 10.2155 10.1484 9.8144C10.5176 9.38253 10.8867 8.95046 11.2866 8.54926C12.394 7.43847 13.6246 6.51282 14.9166 5.74149C17.6852 4.1061 20.823 3.21132 24.1453 3.21132H35.9582C45.9867 3.21132 54.1696 11.3881 54.1696 21.4778C54.1696 26.3529 52.2623 30.9503 48.8477 34.3753C48.54 34.684 48.2016 34.9616 47.894 35.2393C44.6024 38.1089 40.4187 39.7133 35.9889 39.7133L24.5472 39.7108Z" fill="#72654F" stroke="#72654F" stroke-width="0.449167"/>
<path d="M71.9254 55.3929C75.6811 51.5359 77.7677 46.3931 77.7677 40.8876C77.7677 39.4042 77.6073 37.9535 77.3183 36.536C76.4194 32.2834 74.1725 28.3933 70.9945 25.5252C67.3671 22.2286 62.6805 20.4154 57.8333 20.4154H57.7045C57.5439 21.5692 57.2872 22.7231 56.9662 23.8439H57.8329C61.8776 23.8439 65.7617 25.3604 68.8113 28.0966C71.4435 30.4702 73.3374 33.7338 74.0758 37.2614C74.3328 38.4152 74.4609 39.635 74.4609 40.8876C74.4609 45.437 72.7275 49.7227 69.5817 52.9534C68.2976 54.2721 66.8531 55.327 65.2481 56.1511L62.5838 57.5028L63.0653 60.5027C63.1615 61.0961 63.2897 61.6895 63.4184 62.25L63.8036 63.8324L62.4553 62.9753C60.9146 61.9863 59.5343 60.7994 58.3465 59.3818L57.1588 57.9643H45.4743C42.0395 57.9643 38.7331 56.9094 35.9404 54.8655C32.0242 52.0633 29.4883 47.6787 28.9746 42.8327H25.6362C26.1819 48.8326 29.1993 54.2061 34.0465 57.7006C37.4171 60.1401 41.3654 61.3929 45.4743 61.3929H55.618L55.8106 61.6237C59.4059 65.9423 64.542 68.6456 69.999 69.1401C68.1372 66.3709 66.8853 63.2391 66.3396 59.9424L66.2757 59.4477L66.693 59.2168C68.6512 58.2607 70.4167 56.9423 71.9254 55.3929Z" fill="#72654F" stroke="#72654F" stroke-width="0.474731"/>
<path d="M30.8998 31.7372C30.8998 35.0415 26.3458 35.0415 26.3458 31.7372C26.3458 28.53 30.8998 28.53 30.8998 31.7372Z" fill="#72654F" stroke="#72654F" stroke-width="0.141614"/>
<path d="M36.0351 15.5071C36.0351 21.5326 30.1246 22.3101 29.737 26.1976C29.737 26.7807 29.8339 27.6554 28.3805 27.6554C27.4116 27.6554 26.8302 27.7525 26.8302 26.6835C26.8302 21.5326 31.2873 20.7552 31.2873 16.6734C31.2873 13.2719 28.1867 11.9113 24.7955 13.855C23.7296 14.5353 23.3421 14.8268 23.3421 14.8268C22.47 14.6325 22.6638 12.3 22.7607 11.4253C22.8576 10.4535 29.8339 6.46885 34.0972 10.6478C35.3569 11.9113 36.0351 13.5634 36.0351 15.5071Z" fill="#72654F" stroke="#72654F" stroke-width="0.141614"/>
<path d="M48.6855 44.6889C50.7003 42.4852 53.0029 43.0361 54.1541 45.7907C60.774 33.6706 68.833 34.497 68.833 34.497C59.6227 40.8325 54.1541 52.6771 54.1541 52.4017C53.0029 50.198 52.1394 48.2698 50.9881 46.3416C50.4125 45.2398 49.8368 44.4134 48.6855 44.6889Z" fill="#72654F" stroke="#72654F" stroke-width="0.410908"/>
</g>
<defs>
<clipPath id="clip0_557_122">
<rect width="78" height="70" fill="white"/>
</clipPath>
</defs>
</svg>
