<svg width="39" height="36" viewBox="0 0 39 36" fill="none" xmlns="http://www.w3.org/2000/svg">
<path opacity="0.97" d="M24.619 19.2569C24.8083 19.0986 24.9976 18.9247 25.1712 18.7505C26.1177 17.8011 26.8749 16.6935 27.4113 15.4909C27.4585 15.3958 27.5061 15.301 27.5533 15.2063C27.5851 15.1431 27.6005 15.0639 27.6322 15.0004C28.1212 13.7504 28.3894 12.4054 28.3894 11.0129C28.3894 4.98426 23.4989 0.0790405 17.4884 0.0790405H11.399C10.626 0.0790405 9.86877 0.158181 9.12732 0.316469C7.07648 0.743713 5.19917 1.75639 3.68469 3.27545C3.51123 3.44937 3.35341 3.62355 3.19564 3.81343C2.99058 4.05086 2.80126 4.2881 2.61195 4.54129C2.54882 4.6364 2.46995 4.71521 2.40689 4.81031C2.13872 5.2059 1.90207 5.61729 1.6812 6.0287C1.64964 6.09188 1.60229 6.17102 1.57086 6.23454C1.47617 6.42442 1.39724 6.63016 1.31843 6.82004C1.30344 6.86759 1.27122 6.93077 1.23952 6.97832C0.734721 8.24419 0.4823 9.60497 0.4823 10.9975C0.4823 14.3519 2.01255 17.5166 4.61553 19.5737C4.09492 20.7129 3.41658 21.7731 2.58044 22.7067C2.24917 23.0864 2.15454 23.6244 2.3754 24.0833C2.51739 24.3999 2.78556 24.6371 3.10109 24.7479C3.13292 24.7645 3.1483 24.7811 3.18 24.7811C3.19498 24.7811 3.22721 24.7811 3.24312 24.7978C3.33781 24.831 3.44821 24.845 3.55865 24.845C4.63139 24.845 5.68833 24.7186 6.71376 24.481C8.27557 24.1329 9.75846 23.5158 11.1152 22.6614C11.147 22.6448 11.1624 22.6281 11.194 22.6138L11.209 22.6005C11.5245 22.3946 11.84 22.1733 12.1397 21.9517H17.4719C20.1222 21.9517 22.6306 21.0023 24.6183 19.2618L24.619 19.2569ZM11.5883 20.3645L11.3674 20.5384C10.973 20.855 10.5629 21.1238 10.1369 21.3929C9.72676 21.6459 9.30082 21.8834 8.8749 22.0891C8.70144 22.1682 8.51202 22.2474 8.3385 22.3106C8.21238 22.3581 8.10188 22.4214 7.99144 22.4529C7.13955 22.7695 6.24031 23.0067 5.32535 23.1333C5.27814 23.1333 5.23066 23.1466 5.16751 23.1666C5.15253 23.1666 5.1203 23.1666 5.10439 23.1666C4.80464 23.1998 4.5049 23.2297 4.18939 23.2457C4.8362 22.4387 5.38834 21.5684 5.84585 20.6507C5.86083 20.6174 5.87742 20.6031 5.89307 20.5715C5.89307 20.5549 5.90805 20.5383 5.90805 20.524C6.05005 20.2234 6.19205 19.9069 6.31824 19.6062L6.46022 19.2581L6.55492 19.0207L6.19208 18.7676L6.03427 18.6569C5.51367 18.293 5.05619 17.8657 4.63023 17.4227C3.00533 15.6979 2.05879 13.4194 2.05879 10.9984C2.05879 9.81168 2.27966 8.64071 2.70561 7.56472C2.958 6.916 3.28931 6.28309 3.69946 5.69759C3.85727 5.47612 4.03078 5.23869 4.20431 5.03302C4.39361 4.81155 4.58289 4.58997 4.78798 4.38423C5.35589 3.81459 5.98695 3.3399 6.64951 2.94435C8.06932 2.10569 9.67845 1.64682 11.3822 1.64682H17.4401C22.5829 1.64682 26.7793 5.84002 26.7793 11.0142C26.7793 13.5143 25.8012 15.8719 24.0501 17.6284C23.8923 17.7867 23.7188 17.929 23.561 18.0714C21.873 19.543 19.7275 20.3658 17.4558 20.3658L11.5883 20.3645Z" fill="white" stroke="white" stroke-width="0.449167"/>
<path d="M35.8848 28.4066C37.8108 26.4286 38.8808 23.7913 38.8808 20.968C38.8808 20.2073 38.7986 19.4633 38.6504 18.7364C38.1894 16.5556 37.0371 14.5606 35.4074 13.0898C33.5472 11.3993 31.1438 10.4694 28.6581 10.4694H28.592C28.5097 11.0611 28.378 11.6529 28.2134 12.2276H28.6579C30.7321 12.2276 32.7239 13.0053 34.2878 14.4085C35.6377 15.6257 36.6089 17.2994 36.9875 19.1084C37.1194 19.7001 37.1851 20.3256 37.1851 20.968C37.1851 23.301 36.2962 25.4988 34.6829 27.1556C34.0244 27.8318 33.2836 28.3728 32.4605 28.7954L31.0942 29.4886L31.3411 31.027C31.3905 31.3313 31.4562 31.6356 31.5222 31.9231L31.7197 32.7345L31.0283 32.295C30.2382 31.7878 29.5304 31.1792 28.9213 30.4522L28.3122 29.7253H22.3201C20.5587 29.7253 18.8631 29.1843 17.431 28.1361C15.4226 26.6991 14.1222 24.4506 13.8587 21.9655H12.1467C12.4266 25.0423 13.974 27.798 16.4597 29.59C18.1882 30.8411 20.213 31.4835 22.3201 31.4835H27.522L27.6208 31.6019C29.4645 33.8165 32.0984 35.2028 34.8969 35.4564C33.9421 34.0363 33.3001 32.4303 33.0203 30.7397L32.9875 30.486L33.2015 30.3676C34.2057 29.8773 35.1111 29.2012 35.8848 28.4066Z" fill="white" stroke="white" stroke-width="0.474731"/>
<path d="M14.8461 16.2754C14.8461 17.97 12.5107 17.97 12.5107 16.2754C12.5107 14.6308 14.8461 14.6308 14.8461 16.2754Z" fill="white" stroke="white" stroke-width="0.141614"/>
<path d="M17.4796 7.95236C17.4796 11.0424 14.4485 11.4411 14.2498 13.4346C14.2498 13.7337 14.2995 14.1822 13.5541 14.1822C13.0572 14.1822 12.7591 14.2321 12.7591 13.6838C12.7591 11.0424 15.0448 10.6437 15.0448 8.55043C15.0448 6.80607 13.4548 6.10832 11.7156 7.1051C11.1691 7.45397 10.9703 7.60349 10.9703 7.60349C10.5231 7.50381 10.6225 6.30768 10.6722 5.85913C10.7219 5.36074 14.2995 3.31735 16.4858 5.46042C17.1317 6.10832 17.4796 6.95559 17.4796 7.95236Z" fill="white" stroke="white" stroke-width="0.141614"/>
<path d="M23.9669 22.9174C25.0001 21.7873 26.1809 22.0698 26.7713 23.4824C30.1661 17.267 34.2989 17.6908 34.2989 17.6908C29.5757 20.9397 26.7713 27.0139 26.7713 26.8727C26.1809 25.7426 25.7381 24.7538 25.1477 23.7649C24.8525 23.1999 24.5573 22.7761 23.9669 22.9174Z" fill="white" stroke="white" stroke-width="0.410908"/>
</svg>
