<svg width="40" height="36" viewBox="0 0 40 36" fill="none" xmlns="http://www.w3.org/2000/svg">
<g clip-path="url(#clip0_311_1326)">
<path opacity="0.97" d="M34.5138 27.3638C34.7836 27.1389 35.0534 26.8918 35.3008 26.6443C36.6498 25.2952 37.7291 23.7213 38.4936 22.0125C38.5609 21.8773 38.6287 21.7426 38.696 21.608C38.7413 21.5182 38.7633 21.4057 38.8084 21.3155C39.5055 19.5391 39.8877 17.628 39.8877 15.6493C39.8877 7.0826 32.9174 0.112305 24.3507 0.112305H15.6716C14.5699 0.112305 13.4906 0.224766 12.4338 0.449692C9.51085 1.0568 6.83516 2.49582 4.67659 4.65438C4.42936 4.90152 4.20444 5.14903 3.97957 5.41885C3.68732 5.75623 3.41748 6.09334 3.14764 6.45313C3.05767 6.58827 2.94527 6.70026 2.8554 6.83541C2.47316 7.39753 2.13586 7.98211 1.82108 8.56673C1.77609 8.65651 1.70862 8.76897 1.66382 8.85923C1.52886 9.12904 1.41635 9.42139 1.30403 9.69121C1.28286 9.75887 1.23674 9.84846 1.19157 9.91613C0.472071 11.7149 0.112305 13.6486 0.112305 15.6273C0.112305 20.394 2.29332 24.891 6.00331 27.814C5.26128 29.4329 4.29447 30.9394 3.10276 32.266C2.63061 32.8056 2.4957 33.57 2.81048 34.2221C3.01288 34.672 3.39509 35.0091 3.84481 35.1665C3.89017 35.1901 3.91209 35.2137 3.95726 35.2137C3.97862 35.2137 4.02455 35.2137 4.04723 35.2374C4.18219 35.2846 4.33955 35.3045 4.49694 35.3045C6.02589 35.3045 7.53233 35.1249 8.99384 34.7873C11.2199 34.2926 13.3334 33.4158 15.2671 32.2016C15.3125 32.178 15.3344 32.1544 15.3794 32.1342L15.4006 32.1153C15.8503 31.8228 16.3 31.5082 16.7271 31.1933H24.327C28.1044 31.1933 31.6795 29.8443 34.5126 27.371L34.5138 27.3638ZM15.9414 28.9378L15.6266 29.1849C15.0645 29.6347 14.4799 30.0168 13.8728 30.3991C13.2882 30.7587 12.6811 31.0961 12.0741 31.3884C11.8268 31.5009 11.5569 31.6133 11.3096 31.7031C11.1298 31.7708 10.9723 31.8604 10.8149 31.9054C9.60074 32.3552 8.31908 32.6923 7.01501 32.8722C6.94772 32.8722 6.88005 32.8911 6.79002 32.9195C6.76867 32.9195 6.72274 32.9195 6.70006 32.9195C6.27285 32.9667 5.84564 33.0092 5.39594 33.0319C6.31781 31.8852 7.10477 30.6486 7.75684 29.3444C7.7782 29.2972 7.80183 29.2767 7.82414 29.2319C7.82414 29.2083 7.84531 29.1847 7.84531 29.1643C8.04768 28.7371 8.25008 28.2874 8.42992 27.8602L8.63232 27.3655L8.76727 27.0281L8.25014 26.6686L8.02521 26.5111C7.2832 25.9939 6.63118 25.3868 6.02407 24.7573C3.70811 22.3064 2.35903 19.0686 2.35903 15.6284C2.35903 13.9421 2.67383 12.2782 3.28092 10.7492C3.64067 9.82739 4.11286 8.92802 4.69746 8.09603C4.92238 7.78132 5.16965 7.44393 5.41698 7.15168C5.68679 6.83697 5.95657 6.52212 6.2489 6.22977C7.05831 5.42032 7.95777 4.74577 8.9021 4.1837C10.9257 2.99198 13.2192 2.33992 15.6475 2.33992H24.2816C31.6116 2.33992 37.5926 8.29843 37.5926 15.6509C37.5926 19.2035 36.1985 22.5537 33.7027 25.0496C33.4778 25.2745 33.2305 25.4767 33.0057 25.6791C30.5998 27.7702 27.5419 28.9394 24.3041 28.9394L15.9414 28.9378Z" fill="white" stroke="white" stroke-width="0.449167"/>
<path d="M20.5846 23.1273C20.5846 25.5352 17.256 25.5352 17.256 23.1273C17.256 20.7902 20.5846 20.7902 20.5846 23.1273Z" fill="white" stroke="white" stroke-width="0.141614"/>
<path d="M24.3381 11.3002C24.3381 15.6911 20.018 16.2577 19.7348 19.0905C19.7348 19.5154 19.8056 20.1528 18.7433 20.1528C18.0351 20.1528 17.6101 20.2236 17.6101 19.4446C17.6101 15.6911 20.8679 15.1245 20.8679 12.1501C20.8679 9.67137 18.6016 8.67988 16.1229 10.0963C15.3439 10.592 15.0606 10.8045 15.0606 10.8045C14.4232 10.6629 14.5649 8.96316 14.6357 8.32578C14.7065 7.61757 19.8056 4.71393 22.9217 7.75921C23.8424 8.67988 24.3381 9.88383 24.3381 11.3002Z" fill="white" stroke="white" stroke-width="0.141614"/>
</g>
<defs>
<clipPath id="clip0_311_1326">
<rect width="40" height="35.4168" fill="white"/>
</clipPath>
</defs>
</svg>
