<svg width="34" height="34" viewBox="0 0 34 34" fill="none" xmlns="http://www.w3.org/2000/svg">
<circle cx="17" cy="17" r="17" fill="#6C7B0F"/>
<path d="M24.5808 20.9096L25.2275 17.1698C25.389 16.2357 24.6707 15.3813 23.7238 15.3813H18.9744C18.5037 15.3813 18.1453 14.9588 18.2215 14.4938L18.829 10.7863C18.9276 10.184 18.8994 9.56766 18.7462 8.97689C18.6192 8.4875 18.2416 8.09453 17.7451 7.93502L17.6122 7.89232C17.3121 7.79591 16.9845 7.81834 16.7016 7.95469C16.3902 8.10476 16.1623 8.3785 16.0779 8.70406L15.6418 10.3851C15.503 10.92 15.301 11.4362 15.0404 11.9241C14.6596 12.6368 14.071 13.2073 13.459 13.7345L12.1402 14.871C11.7683 15.1915 11.5731 15.6714 11.6154 16.1607L12.3599 24.7707C12.4281 25.5604 13.0884 26.1667 13.8802 26.1667H18.1415C21.3326 26.1667 24.0561 23.9432 24.5808 20.9096Z" fill="white"/>
<path fill-rule="evenodd" clip-rule="evenodd" d="M8.72036 14.6946C9.08819 14.6788 9.40323 14.9555 9.43494 15.3223L10.3256 25.6224C10.3828 26.2841 9.86162 26.8543 9.19615 26.8543C8.56932 26.8543 8.0625 26.3458 8.0625 25.7202V15.3815C8.0625 15.0133 8.35253 14.7105 8.72036 14.6946Z" fill="white"/>
</svg>
